  0
SECTION
  2
HEADER
  9
$ACADVER
  1
AC1009
  9
$EXTMIN
 10
0.0
 20
0.0
 30
0.0
  9
$EXTMAX
 10
1000.0
 20
1000.0
 30
0.0
  9
$FILLMODE
 70
 0
  9
$SPLFRAME
 70
 1
  0
ENDSEC
  0
SECTION
  2
TABLES
  0
TABLE
  2
LAYER
 70
1
  0
LAYER
  2
0
 70
     0
 62
     7
  6
CONTINUOUS
  0
ENDTAB
  0
ENDSEC
  0
SECTION
  2
ENTITIES
  0
LINE
  8
0
 62
     0
 10
5.18332
 20
4.36111
 30
0.0
 11
5.1774
 21
4.35525
 31
0.0
  0
LINE
  8
0
 62
     0
 10
5.1774
 20
4.35525
 30
0.0
 11
5.15104
 21
4.31967
 31
0.0
  0
LINE
  8
0
 62
     0
 10
5.15104
 20
4.31967
 30
0.0
 11
5.1339
 21
4.28429
 31
0.0
  0
LINE
  8
0
 62
     0
 10
5.1339
 20
4.28429
 30
0.0
 11
5.13265
 21
4.27849
 31
0.0
  0
LINE
  8
0
 62
     0
 10
5.13265
 20
4.27849
 30
0.0
 11
5.13146
 21
4.27306
 31
0.0
  0
LINE
  8
0
 62
     0
 10
5.13146
 20
4.27306
 30
0.0
 11
5.12646
 21
4.25706
 31
0.0
  0
LINE
  8
0
 62
     0
 10
5.12646
 20
4.25706
 30
0.0
 11
5.11632
 21
4.229
 31
0.0
  0
LINE
  8
0
 62
     0
 10
5.11632
 20
4.229
 30
0.0
 11
5.10351
 21
4.19797
 31
0.0
  0
LINE
  8
0
 62
     0
 10
5.10351
 20
4.19797
 30
0.0
 11
5.09321
 21
4.17497
 31
0.0
  0
LINE
  8
0
 62
     0
 10
5.09321
 20
4.17497
 30
0.0
 11
5.08957
 21
4.16737
 31
0.0
  0
LINE
  8
0
 62
     0
 10
5.08957
 20
4.16737
 30
0.0
 11
5.08589
 21
4.15983
 31
0.0
  0
LINE
  8
0
 62
     0
 10
5.08589
 20
4.15983
 30
0.0
 11
5.07628
 21
4.1365
 31
0.0
  0
LINE
  8
0
 62
     0
 10
5.07628
 20
4.1365
 30
0.0
 11
5.06549
 21
4.10454
 31
0.0
  0
LINE
  8
0
 62
     0
 10
5.06549
 20
4.10454
 30
0.0
 11
5.05821
 21
4.07519
 31
0.0
  0
LINE
  8
0
 62
     0
 10
5.05821
 20
4.07519
 30
0.0
 11
5.05556
 21
4.05789
 31
0.0
  0
LINE
  8
0
 62
     0
 10
5.05556
 20
4.05789
 30
0.0
 11
5.05556
 21
4.05208
 31
0.0
  0
LINE
  8
0
 62
     0
 10
5.05556
 20
4.05208
 30
0.0
 11
5.05556
 21
4.04042
 31
0.0
  0
LINE
  8
0
 62
     0
 10
5.05556
 20
4.04042
 30
0.0
 11
5.05306
 21
4.00532
 31
0.0
  0
LINE
  8
0
 62
     0
 10
5.05306
 20
4.00532
 30
0.0
 11
5.04833
 21
3.96322
 31
0.0
  0
LINE
  8
0
 62
     0
 10
5.04833
 20
3.96322
 30
0.0
 11
5.04719
 21
3.95628
 31
0.0
  0
LINE
  8
0
 62
     0
 10
5.04719
 20
3.95628
 30
0.0
 11
5.0389
 21
3.90554
 31
0.0
  0
LINE
  8
0
 62
     0
 10
5.0389
 20
3.90554
 30
0.0
 11
4.91114
 21
3.89919
 31
0.0
  0
LINE
  8
0
 62
     0
 10
4.91114
 20
3.89919
 30
0.0
 11
4.88764
 21
3.89806
 31
0.0
  0
LINE
  8
0
 62
     0
 10
4.88764
 20
3.89806
 30
0.0
 11
4.81749
 21
3.89094
 31
0.0
  0
LINE
  8
0
 62
     0
 10
4.81749
 20
3.89094
 30
0.0
 11
4.74024
 21
3.87468
 31
0.0
  0
LINE
  8
0
 62
     0
 10
4.74024
 20
3.87468
 30
0.0
 11
4.66889
 21
3.84722
 31
0.0
  0
LINE
  8
0
 62
     0
 10
4.66889
 20
3.84722
 30
0.0
 11
4.61149
 21
3.81689
 31
0.0
  0
LINE
  8
0
 62
     0
 10
4.61149
 20
3.81689
 30
0.0
 11
4.59304
 21
3.80561
 31
0.0
  0
LINE
  8
0
 62
     0
 10
4.59304
 20
3.80561
 30
0.0
 11
4.57064
 21
3.79199
 31
0.0
  0
LINE
  8
0
 62
     0
 10
4.57064
 20
3.79199
 30
0.0
 11
4.507
 21
3.74501
 31
0.0
  0
LINE
  8
0
 62
     0
 10
4.507
 20
3.74501
 30
0.0
 11
4.42686
 21
3.67557
 31
0.0
  0
LINE
  8
0
 62
     0
 10
4.42686
 20
3.67557
 30
0.0
 11
4.36963
 21
3.6135
 31
0.0
  0
LINE
  8
0
 62
     0
 10
4.36963
 20
3.6135
 30
0.0
 11
4.3495
 21
3.58197
 31
0.0
  0
LINE
  8
0
 62
     0
 10
4.3495
 20
3.58197
 30
0.0
 11
4.35215
 21
3.57497
 31
0.0
  0
LINE
  8
0
 62
     0
 10
4.35215
 20
3.57497
 30
0.0
 11
4.35331
 21
3.572
 31
0.0
  0
LINE
  8
0
 62
     0
 10
4.35331
 20
3.572
 30
0.0
 11
4.35883
 21
3.56369
 31
0.0
  0
LINE
  8
0
 62
     0
 10
4.35883
 20
3.56369
 30
0.0
 11
4.36974
 21
3.55778
 31
0.0
  0
LINE
  8
0
 62
     0
 10
4.36974
 20
3.55778
 30
0.0
 11
4.38704
 21
3.55669
 31
0.0
  0
LINE
  8
0
 62
     0
 10
4.38704
 20
3.55669
 30
0.0
 11
4.40668
 21
3.55871
 31
0.0
  0
LINE
  8
0
 62
     0
 10
4.40668
 20
3.55871
 30
0.0
 11
4.41319
 21
3.55974
 31
0.0
  0
LINE
  8
0
 62
     0
 10
4.41319
 20
3.55974
 30
0.0
 11
4.42031
 21
3.56087
 31
0.0
  0
LINE
  8
0
 62
     0
 10
4.42031
 20
3.56087
 30
0.0
 11
4.44379
 21
3.56467
 31
0.0
  0
LINE
  8
0
 62
     0
 10
4.44379
 20
3.56467
 30
0.0
 11
4.48876
 21
3.572
 31
0.0
  0
LINE
  8
0
 62
     0
 10
4.48876
 20
3.572
 30
0.0
 11
4.54199
 21
3.58062
 31
0.0
  0
LINE
  8
0
 62
     0
 10
4.54199
 20
3.58062
 30
0.0
 11
4.58339
 21
3.58735
 31
0.0
  0
LINE
  8
0
 62
     0
 10
4.58339
 20
3.58735
 30
0.0
 11
4.59722
 21
3.58957
 31
0.0
  0
LINE
  8
0
 62
     0
 10
4.59722
 20
3.58957
 30
0.0
 11
4.62343
 21
3.59386
 31
0.0
  0
LINE
  8
0
 62
     0
 10
4.62343
 20
3.59386
 30
0.0
 11
4.70264
 21
3.60417
 31
0.0
  0
LINE
  8
0
 62
     0
 10
4.70264
 20
3.60417
 30
0.0
 11
4.78717
 21
3.61025
 31
0.0
  0
LINE
  8
0
 62
     0
 10
4.78717
 20
3.61025
 30
0.0
 11
4.84999
 21
3.60775
 31
0.0
  0
LINE
  8
0
 62
     0
 10
4.84999
 20
3.60775
 30
0.0
 11
4.88129
 21
3.60151
 31
0.0
  0
LINE
  8
0
 62
     0
 10
4.88129
 20
3.60151
 30
0.0
 11
4.89031
 21
3.59674
 31
0.0
  0
LINE
  8
0
 62
     0
 10
4.89031
 20
3.59674
 30
0.0
 11
4.89415
 21
3.59467
 31
0.0
  0
LINE
  8
0
 62
     0
 10
4.89415
 20
3.59467
 30
0.0
 11
4.90517
 21
3.58729
 31
0.0
  0
LINE
  8
0
 62
     0
 10
4.90517
 20
3.58729
 30
0.0
 11
4.90842
 21
3.5765
 31
0.0
  0
LINE
  8
0
 62
     0
 10
4.90842
 20
3.5765
 30
0.0
 11
4.89854
 21
3.55821
 31
0.0
  0
LINE
  8
0
 62
     0
 10
4.89854
 20
3.55821
 30
0.0
 11
4.88043
 21
3.53424
 31
0.0
  0
LINE
  8
0
 62
     0
 10
4.88043
 20
3.53424
 30
0.0
 11
4.87424
 21
3.52636
 31
0.0
  0
LINE
  8
0
 62
     0
 10
4.87424
 20
3.52636
 30
0.0
 11
4.86681
 21
3.51699
 31
0.0
  0
LINE
  8
0
 62
     0
 10
4.86681
 20
3.51699
 30
0.0
 11
4.84782
 21
3.48622
 31
0.0
  0
LINE
  8
0
 62
     0
 10
4.84782
 20
3.48622
 30
0.0
 11
4.83942
 21
3.45611
 31
0.0
  0
LINE
  8
0
 62
     0
 10
4.83942
 20
3.45611
 30
0.0
 11
4.84896
 21
3.43718
 31
0.0
  0
LINE
  8
0
 62
     0
 10
4.84896
 20
3.43718
 30
0.0
 11
4.86951
 21
3.43056
 31
0.0
  0
LINE
  8
0
 62
     0
 10
4.86951
 20
3.43056
 30
0.0
 11
4.87642
 21
3.43056
 31
0.0
  0
LINE
  8
0
 62
     0
 10
4.87642
 20
3.43056
 30
0.0
 11
4.88037
 21
3.43056
 31
0.0
  0
LINE
  8
0
 62
     0
 10
4.88037
 20
3.43056
 30
0.0
 11
4.89231
 21
3.4291
 31
0.0
  0
LINE
  8
0
 62
     0
 10
4.89231
 20
3.4291
 30
0.0
 11
4.90044
 21
3.42258
 31
0.0
  0
LINE
  8
0
 62
     0
 10
4.90044
 20
3.42258
 30
0.0
 11
4.90235
 21
3.40831
 31
0.0
  0
LINE
  8
0
 62
     0
 10
4.90235
 20
3.40831
 30
0.0
 11
4.90028
 21
3.3896
 31
0.0
  0
LINE
  8
0
 62
     0
 10
4.90028
 20
3.3896
 30
0.0
 11
4.89931
 21
3.38336
 31
0.0
  0
LINE
  8
0
 62
     0
 10
4.89931
 20
3.38336
 30
0.0
 11
4.89822
 21
3.3769
 31
0.0
  0
LINE
  8
0
 62
     0
 10
4.89822
 20
3.3769
 30
0.0
 11
4.89626
 21
3.35721
 31
0.0
  0
LINE
  8
0
 62
     0
 10
4.89626
 20
3.35721
 30
0.0
 11
4.89729
 21
3.33637
 31
0.0
  0
LINE
  8
0
 62
     0
 10
4.89729
 20
3.33637
 30
0.0
 11
4.90332
 21
3.32032
 31
0.0
  0
LINE
  8
0
 62
     0
 10
4.90332
 20
3.32032
 30
0.0
 11
4.91525
 21
3.30832
 31
0.0
  0
LINE
  8
0
 62
     0
 10
4.91525
 20
3.30832
 30
0.0
 11
4.93408
 21
3.29975
 31
0.0
  0
LINE
  8
0
 62
     0
 10
4.93408
 20
3.29975
 30
0.0
 11
4.96083
 21
3.294
 31
0.0
  0
LINE
  8
0
 62
     0
 10
4.96083
 20
3.294
 30
0.0
 11
4.99631
 21
3.29042
 31
0.0
  0
LINE
  8
0
 62
     0
 10
4.99631
 20
3.29042
 30
0.0
 11
5.03033
 21
3.28868
 31
0.0
  0
LINE
  8
0
 62
     0
 10
5.03033
 20
3.28868
 30
0.0
 11
5.04167
 21
3.28831
 31
0.0
  0
LINE
  8
0
 62
     0
 10
5.04167
 20
3.28831
 30
0.0
 11
5.058
 21
3.28782
 31
0.0
  0
LINE
  8
0
 62
     0
 10
5.058
 20
3.28782
 30
0.0
 11
5.1071
 21
3.2856
 31
0.0
  0
LINE
  8
0
 62
     0
 10
5.1071
 20
3.2856
 30
0.0
 11
5.14307
 21
3.28054
 31
0.0
  0
LINE
  8
0
 62
     0
 10
5.14307
 20
3.28054
 30
0.0
 11
5.15907
 21
3.27056
 31
0.0
  0
LINE
  8
0
 62
     0
 10
5.15907
 20
3.27056
 30
0.0
 11
5.1639
 21
3.25732
 31
0.0
  0
LINE
  8
0
 62
     0
 10
5.1639
 20
3.25732
 30
0.0
 11
5.16461
 21
3.25276
 31
0.0
  0
LINE
  8
0
 62
     0
 10
5.16461
 20
3.25276
 30
0.0
 11
5.16531
 21
3.24799
 31
0.0
  0
LINE
  8
0
 62
     0
 10
5.16531
 20
3.24799
 30
0.0
 11
5.15799
 21
3.21625
 31
0.0
  0
LINE
  8
0
 62
     0
 10
5.15799
 20
3.21625
 30
0.0
 11
5.13813
 21
3.17953
 31
0.0
  0
LINE
  8
0
 62
     0
 10
5.13813
 20
3.17953
 30
0.0
 11
5.13265
 21
3.17219
 31
0.0
  0
LINE
  8
0
 62
     0
 10
5.13265
 20
3.17219
 30
0.0
 11
5.12728
 21
3.16515
 31
0.0
  0
LINE
  8
0
 62
     0
 10
5.12728
 20
3.16515
 30
0.0
 11
5.11029
 21
3.14469
 31
0.0
  0
LINE
  8
0
 62
     0
 10
5.11029
 20
3.14469
 30
0.0
 11
5.09115
 21
3.13135
 31
0.0
  0
LINE
  8
0
 62
     0
 10
5.09115
 20
3.13135
 30
0.0
 11
5.06543
 21
3.12875
 31
0.0
  0
LINE
  8
0
 62
     0
 10
5.06543
 20
3.12875
 30
0.0
 11
5.03401
 21
3.132
 31
0.0
  0
LINE
  8
0
 62
     0
 10
5.03401
 20
3.132
 30
0.0
 11
5.0236
 21
3.13336
 31
0.0
  0
LINE
  8
0
 62
     0
 10
5.0236
 20
3.13336
 30
0.0
 11
5.01351
 21
3.13471
 31
0.0
  0
LINE
  8
0
 62
     0
 10
5.01351
 20
3.13471
 30
0.0
 11
4.9675
 21
3.1441
 31
0.0
  0
LINE
  8
0
 62
     0
 10
4.9675
 20
3.1441
 30
0.0
 11
4.93701
 21
3.15435
 31
0.0
  0
LINE
  8
0
 62
     0
 10
4.93701
 20
3.15435
 30
0.0
 11
4.93474
 21
3.15614
 31
0.0
  0
LINE
  8
0
 62
     0
 10
4.93474
 20
3.15614
 30
0.0
 11
4.93039
 21
3.15956
 31
0.0
  0
LINE
  8
0
 62
     0
 10
4.93039
 20
3.15956
 30
0.0
 11
4.91015
 21
3.16032
 31
0.0
  0
LINE
  8
0
 62
     0
 10
4.91015
 20
3.16032
 30
0.0
 11
4.88129
 21
3.14681
 31
0.0
  0
LINE
  8
0
 62
     0
 10
4.88129
 20
3.14681
 30
0.0
 11
4.85726
 21
3.12218
 31
0.0
  0
LINE
  8
0
 62
     0
 10
4.85726
 20
3.12218
 30
0.0
 11
4.84722
 21
3.10038
 31
0.0
  0
LINE
  8
0
 62
     0
 10
4.84722
 20
3.10038
 30
0.0
 11
4.84722
 21
3.09304
 31
0.0
  0
LINE
  8
0
 62
     0
 10
4.84722
 20
3.09304
 30
0.0
 11
4.84722
 21
3.08219
 31
0.0
  0
LINE
  8
0
 62
     0
 10
4.84722
 20
3.08219
 30
0.0
 11
4.85932
 21
3.04964
 31
0.0
  0
LINE
  8
0
 62
     0
 10
4.85932
 20
3.04964
 30
0.0
 11
4.89008
 21
2.97819
 31
0.0
  0
LINE
  8
0
 62
     0
 10
4.89008
 20
2.97819
 30
0.0
 11
4.93115
 21
2.89649
 31
0.0
  0
LINE
  8
0
 62
     0
 10
4.93115
 20
2.89649
 30
0.0
 11
4.96272
 21
2.84028
 31
0.0
  0
LINE
  8
0
 62
     0
 10
4.96272
 20
2.84028
 30
0.0
 11
4.97428
 21
2.82221
 31
0.0
  0
LINE
  8
0
 62
     0
 10
4.97428
 20
2.82221
 30
0.0
 11
4.97831
 21
2.81592
 31
0.0
  0
LINE
  8
0
 62
     0
 10
4.97831
 20
2.81592
 30
0.0
 11
4.98936
 21
2.79633
 31
0.0
  0
LINE
  8
0
 62
     0
 10
4.98936
 20
2.79633
 30
0.0
 11
4.99756
 21
2.77572
 31
0.0
  0
LINE
  8
0
 62
     0
 10
4.99756
 20
2.77572
 30
0.0
 11
4.99837
 21
2.75999
 31
0.0
  0
LINE
  8
0
 62
     0
 10
4.99837
 20
2.75999
 30
0.0
 11
4.99126
 21
2.74875
 31
0.0
  0
LINE
  8
0
 62
     0
 10
4.99126
 20
2.74875
 30
0.0
 11
4.97575
 21
2.74154
 31
0.0
  0
LINE
  8
0
 62
     0
 10
4.97575
 20
2.74154
 30
0.0
 11
4.95128
 21
2.73801
 31
0.0
  0
LINE
  8
0
 62
     0
 10
4.95128
 20
2.73801
 30
0.0
 11
4.91737
 21
2.73768
 31
0.0
  0
LINE
  8
0
 62
     0
 10
4.91737
 20
2.73768
 30
0.0
 11
4.8845
 21
2.73931
 31
0.0
  0
LINE
  8
0
 62
     0
 10
4.8845
 20
2.73931
 30
0.0
 11
4.87358
 21
2.74013
 31
0.0
  0
LINE
  8
0
 62
     0
 10
4.87358
 20
2.74013
 30
0.0
 11
4.86187
 21
2.74104
 31
0.0
  0
LINE
  8
0
 62
     0
 10
4.86187
 20
2.74104
 30
0.0
 11
4.82693
 21
2.74511
 31
0.0
  0
LINE
  8
0
 62
     0
 10
4.82693
 20
2.74511
 30
0.0
 11
4.78207
 21
2.75244
 31
0.0
  0
LINE
  8
0
 62
     0
 10
4.78207
 20
2.75244
 30
0.0
 11
4.74403
 21
2.76107
 31
0.0
  0
LINE
  8
0
 62
     0
 10
4.74403
 20
2.76107
 30
0.0
 11
4.72412
 21
2.76714
 31
0.0
  0
LINE
  8
0
 62
     0
 10
4.72412
 20
2.76714
 30
0.0
 11
4.71804
 21
2.77007
 31
0.0
  0
LINE
  8
0
 62
     0
 10
4.71804
 20
2.77007
 30
0.0
 11
4.70458
 21
2.77658
 31
0.0
  0
LINE
  8
0
 62
     0
 10
4.70458
 20
2.77658
 30
0.0
 11
4.66824
 21
2.80442
 31
0.0
  0
LINE
  8
0
 62
     0
 10
4.66824
 20
2.80442
 30
0.0
 11
4.59744
 21
2.86621
 31
0.0
  0
LINE
  8
0
 62
     0
 10
4.59744
 20
2.86621
 30
0.0
 11
4.51417
 21
2.94646
 31
0.0
  0
LINE
  8
0
 62
     0
 10
4.51417
 20
2.94646
 30
0.0
 11
4.42692
 21
3.03618
 31
0.0
  0
LINE
  8
0
 62
     0
 10
4.42692
 20
3.03618
 30
0.0
 11
4.34418
 21
3.12636
 31
0.0
  0
LINE
  8
0
 62
     0
 10
4.34418
 20
3.12636
 30
0.0
 11
4.27447
 21
3.20801
 31
0.0
  0
LINE
  8
0
 62
     0
 10
4.27447
 20
3.20801
 30
0.0
 11
4.22624
 21
3.27214
 31
0.0
  0
LINE
  8
0
 62
     0
 10
4.22624
 20
3.27214
 30
0.0
 11
4.20822
 21
3.30029
 31
0.0
  0
LINE
  8
0
 62
     0
 10
4.20822
 20
3.30029
 30
0.0
 11
4.20811
 21
3.30974
 31
0.0
  0
LINE
  8
0
 62
     0
 10
4.20811
 20
3.30974
 30
0.0
 11
4.20801
 21
3.31569
 31
0.0
  0
LINE
  8
0
 62
     0
 10
4.20801
 20
3.31569
 30
0.0
 11
4.20449
 21
3.33356
 31
0.0
  0
LINE
  8
0
 62
     0
 10
4.20449
 20
3.33356
 30
0.0
 11
4.19521
 21
3.35542
 31
0.0
  0
LINE
  8
0
 62
     0
 10
4.19521
 20
3.35542
 30
0.0
 11
4.18147
 21
3.3744
 31
0.0
  0
LINE
  8
0
 62
     0
 10
4.18147
 20
3.3744
 30
0.0
 11
4.16456
 21
3.38971
 31
0.0
  0
LINE
  8
0
 62
     0
 10
4.16456
 20
3.38971
 30
0.0
 11
4.14561
 21
3.40044
 31
0.0
  0
LINE
  8
0
 62
     0
 10
4.14561
 20
3.40044
 30
0.0
 11
4.12587
 21
3.40565
 31
0.0
  0
LINE
  8
0
 62
     0
 10
4.12587
 20
3.40565
 30
0.0
 11
4.1065
 21
3.40451
 31
0.0
  0
LINE
  8
0
 62
     0
 10
4.1065
 20
3.40451
 30
0.0
 11
4.09267
 21
3.39899
 31
0.0
  0
LINE
  8
0
 62
     0
 10
4.09267
 20
3.39899
 30
0.0
 11
4.08886
 21
3.39611
 31
0.0
  0
LINE
  8
0
 62
     0
 10
4.08886
 20
3.39611
 30
0.0
 11
4.08512
 21
3.39333
 31
0.0
  0
LINE
  8
0
 62
     0
 10
4.08512
 20
3.39333
 30
0.0
 11
4.07443
 21
3.38411
 31
0.0
  0
LINE
  8
0
 62
     0
 10
4.07443
 20
3.38411
 30
0.0
 11
4.06939
 21
3.37321
 31
0.0
  0
LINE
  8
0
 62
     0
 10
4.06939
 20
3.37321
 30
0.0
 11
4.07346
 21
3.35807
 31
0.0
  0
LINE
  8
0
 62
     0
 10
4.07346
 20
3.35807
 30
0.0
 11
4.08311
 21
3.33946
 31
0.0
  0
LINE
  8
0
 62
     0
 10
4.08311
 20
3.33946
 30
0.0
 11
4.08653
 21
3.33333
 31
0.0
  0
LINE
  8
0
 62
     0
 10
4.08653
 20
3.33333
 30
0.0
 11
4.09082
 21
3.32568
 31
0.0
  0
LINE
  8
0
 62
     0
 10
4.09082
 20
3.32568
 30
0.0
 11
4.10238
 21
3.30186
 31
0.0
  0
LINE
  8
0
 62
     0
 10
4.10238
 20
3.30186
 30
0.0
 11
4.10894
 21
3.28174
 31
0.0
  0
LINE
  8
0
 62
     0
 10
4.10894
 20
3.28174
 30
0.0
 11
4.10721
 21
3.27251
 31
0.0
  0
LINE
  8
0
 62
     0
 10
4.10721
 20
3.27251
 30
0.0
 11
4.09831
 21
3.2736
 31
0.0
  0
LINE
  8
0
 62
     0
 10
4.09831
 20
3.2736
 30
0.0
 11
4.08322
 21
3.2845
 31
0.0
  0
LINE
  8
0
 62
     0
 10
4.08322
 20
3.2845
 30
0.0
 11
4.06304
 21
3.30469
 31
0.0
  0
LINE
  8
0
 62
     0
 10
4.06304
 20
3.30469
 30
0.0
 11
4.03879
 21
3.33365
 31
0.0
  0
LINE
  8
0
 62
     0
 10
4.03879
 20
3.33365
 30
0.0
 11
4.01807
 21
3.36139
 31
0.0
  0
LINE
  8
0
 62
     0
 10
4.01807
 20
3.36139
 30
0.0
 11
4.01156
 21
3.37082
 31
0.0
  0
LINE
  8
0
 62
     0
 10
4.01156
 20
3.37082
 30
0.0
 11
4.00407
 21
3.38167
 31
0.0
  0
LINE
  8
0
 62
     0
 10
4.00407
 20
3.38167
 30
0.0
 11
3.97911
 21
3.41249
 31
0.0
  0
LINE
  8
0
 62
     0
 10
3.97911
 20
3.41249
 30
0.0
 11
3.94938
 21
3.43951
 31
0.0
  0
LINE
  8
0
 62
     0
 10
3.94938
 20
3.43951
 30
0.0
 11
3.9221
 21
3.45204
 31
0.0
  0
LINE
  8
0
 62
     0
 10
3.9221
 20
3.45204
 30
0.0
 11
3.90278
 21
3.45226
 31
0.0
  0
LINE
  8
0
 62
     0
 10
3.90278
 20
3.45226
 30
0.0
 11
3.89725
 21
3.45014
 31
0.0
  0
LINE
  8
0
 62
     0
 10
3.89725
 20
3.45014
 30
0.0
 11
3.89231
 21
3.44829
 31
0.0
  0
LINE
  8
0
 62
     0
 10
3.89231
 20
3.44829
 30
0.0
 11
3.87956
 21
3.43713
 31
0.0
  0
LINE
  8
0
 62
     0
 10
3.87956
 20
3.43713
 30
0.0
 11
3.87853
 21
3.41521
 31
0.0
  0
LINE
  8
0
 62
     0
 10
3.87853
 20
3.41521
 30
0.0
 11
3.89513
 21
3.38086
 31
0.0
  0
LINE
  8
0
 62
     0
 10
3.89513
 20
3.38086
 30
0.0
 11
3.92106
 21
3.34283
 31
0.0
  0
LINE
  8
0
 62
     0
 10
3.92106
 20
3.34283
 30
0.0
 11
3.93033
 21
3.33057
 31
0.0
  0
LINE
  8
0
 62
     0
 10
3.93033
 20
3.33057
 30
0.0
 11
3.93896
 21
3.31913
 31
0.0
  0
LINE
  8
0
 62
     0
 10
3.93896
 20
3.31913
 30
0.0
 11
3.96246
 21
3.28271
 31
0.0
  0
LINE
  8
0
 62
     0
 10
3.96246
 20
3.28271
 30
0.0
 11
3.97119
 21
3.25678
 31
0.0
  0
LINE
  8
0
 62
     0
 10
3.97119
 20
3.25678
 30
0.0
 11
3.95676
 21
3.25407
 31
0.0
  0
LINE
  8
0
 62
     0
 10
3.95676
 20
3.25407
 30
0.0
 11
3.92817
 21
3.26975
 31
0.0
  0
LINE
  8
0
 62
     0
 10
3.92817
 20
3.26975
 30
0.0
 11
3.91943
 21
3.27599
 31
0.0
  0
LINE
  8
0
 62
     0
 10
3.91943
 20
3.27599
 30
0.0
 11
3.90918
 21
3.28331
 31
0.0
  0
LINE
  8
0
 62
     0
 10
3.90918
 20
3.28331
 30
0.0
 11
3.875
 21
3.30035
 31
0.0
  0
LINE
  8
0
 62
     0
 10
3.875
 20
3.30035
 30
0.0
 11
3.82969
 21
3.31315
 31
0.0
  0
LINE
  8
0
 62
     0
 10
3.82969
 20
3.31315
 30
0.0
 11
3.79058
 21
3.31342
 31
0.0
  0
LINE
  8
0
 62
     0
 10
3.79058
 20
3.31342
 30
0.0
 11
3.76888
 21
3.30524
 31
0.0
  0
LINE
  8
0
 62
     0
 10
3.76888
 20
3.30524
 30
0.0
 11
3.7646
 21
3.30003
 31
0.0
  0
LINE
  8
0
 62
     0
 10
3.7646
 20
3.30003
 30
0.0
 11
3.76243
 21
3.29747
 31
0.0
  0
LINE
  8
0
 62
     0
 10
3.76243
 20
3.29747
 30
0.0
 11
3.75819
 21
3.28803
 31
0.0
  0
LINE
  8
0
 62
     0
 10
3.75819
 20
3.28803
 30
0.0
 11
3.76269
 21
3.27664
 31
0.0
  0
LINE
  8
0
 62
     0
 10
3.76269
 20
3.27664
 30
0.0
 11
3.78065
 21
3.26307
 31
0.0
  0
LINE
  8
0
 62
     0
 10
3.78065
 20
3.26307
 30
0.0
 11
3.80593
 21
3.24892
 31
0.0
  0
LINE
  8
0
 62
     0
 10
3.80593
 20
3.24892
 30
0.0
 11
3.81456
 21
3.24447
 31
0.0
  0
LINE
  8
0
 62
     0
 10
3.81456
 20
3.24447
 30
0.0
 11
3.82183
 21
3.24072
 31
0.0
  0
LINE
  8
0
 62
     0
 10
3.82183
 20
3.24072
 30
0.0
 11
3.84353
 21
3.22879
 31
0.0
  0
LINE
  8
0
 62
     0
 10
3.84353
 20
3.22879
 30
0.0
 11
3.87224
 21
3.21197
 31
0.0
  0
LINE
  8
0
 62
     0
 10
3.87224
 20
3.21197
 30
0.0
 11
3.8974
 21
3.19596
 31
0.0
  0
LINE
  8
0
 62
     0
 10
3.8974
 20
3.19596
 30
0.0
 11
3.91146
 21
3.18619
 31
0.0
  0
LINE
  8
0
 62
     0
 10
3.91146
 20
3.18619
 30
0.0
 11
3.91596
 21
3.18261
 31
0.0
  0
LINE
  8
0
 62
     0
 10
3.91596
 20
3.18261
 30
0.0
 11
3.94997
 21
3.15554
 31
0.0
  0
LINE
  8
0
 62
     0
 10
3.94997
 20
3.15554
 30
0.0
 11
3.88747
 21
3.13938
 31
0.0
  0
LINE
  8
0
 62
     0
 10
3.88747
 20
3.13938
 30
0.0
 11
3.87001
 21
3.13488
 31
0.0
  0
LINE
  8
0
 62
     0
 10
3.87001
 20
3.13488
 30
0.0
 11
3.81787
 21
3.12044
 31
0.0
  0
LINE
  8
0
 62
     0
 10
3.81787
 20
3.12044
 30
0.0
 11
3.77843
 21
3.10613
 31
0.0
  0
LINE
  8
0
 62
     0
 10
3.77843
 20
3.10613
 30
0.0
 11
3.7609
 21
3.09233
 31
0.0
  0
LINE
  8
0
 62
     0
 10
3.7609
 20
3.09233
 30
0.0
 11
3.75694
 21
3.07932
 31
0.0
  0
LINE
  8
0
 62
     0
 10
3.75694
 20
3.07932
 30
0.0
 11
3.75694
 21
3.07497
 31
0.0
  0
LINE
  8
0
 62
     0
 10
3.75694
 20
3.07497
 30
0.0
 11
3.75694
 21
3.07178
 31
0.0
  0
LINE
  8
0
 62
     0
 10
3.75694
 20
3.07178
 30
0.0
 11
3.7589
 21
3.06207
 31
0.0
  0
LINE
  8
0
 62
     0
 10
3.7589
 20
3.06207
 30
0.0
 11
3.76563
 21
3.05285
 31
0.0
  0
LINE
  8
0
 62
     0
 10
3.76563
 20
3.05285
 30
0.0
 11
3.7781
 21
3.04731
 31
0.0
  0
LINE
  8
0
 62
     0
 10
3.7781
 20
3.04731
 30
0.0
 11
3.79736
 21
3.04551
 31
0.0
  0
LINE
  8
0
 62
     0
 10
3.79736
 20
3.04551
 30
0.0
 11
3.82454
 21
3.04747
 31
0.0
  0
LINE
  8
0
 62
     0
 10
3.82454
 20
3.04747
 30
0.0
 11
3.86062
 21
3.05311
 31
0.0
  0
LINE
  8
0
 62
     0
 10
3.86062
 20
3.05311
 30
0.0
 11
3.90668
 21
3.06244
 31
0.0
  0
LINE
  8
0
 62
     0
 10
3.90668
 20
3.06244
 30
0.0
 11
3.9496
 21
3.07215
 31
0.0
  0
LINE
  8
0
 62
     0
 10
3.9496
 20
3.07215
 30
0.0
 11
3.96386
 21
3.07553
 31
0.0
  0
LINE
  8
0
 62
     0
 10
3.96386
 20
3.07553
 30
0.0
 11
3.97879
 21
3.0791
 31
0.0
  0
LINE
  8
0
 62
     0
 10
3.97879
 20
3.0791
 30
0.0
 11
4.02382
 21
3.08931
 31
0.0
  0
LINE
  8
0
 62
     0
 10
4.02382
 20
3.08931
 30
0.0
 11
4.07676
 21
3.10064
 31
0.0
  0
LINE
  8
0
 62
     0
 10
4.07676
 20
3.10064
 30
0.0
 11
4.11686
 21
3.10829
 31
0.0
  0
LINE
  8
0
 62
     0
 10
4.11686
 20
3.10829
 30
0.0
 11
4.13282
 21
3.11111
 31
0.0
  0
LINE
  8
0
 62
     0
 10
4.13282
 20
3.11111
 30
0.0
 11
4.13818
 21
3.11111
 31
0.0
  0
LINE
  8
0
 62
     0
 10
4.13818
 20
3.11111
 30
0.0
 11
4.14458
 21
3.11111
 31
0.0
  0
LINE
  8
0
 62
     0
 10
4.14458
 20
3.11111
 30
0.0
 11
4.16379
 21
3.09532
 31
0.0
  0
LINE
  8
0
 62
     0
 10
4.16379
 20
3.09532
 30
0.0
 11
4.21556
 21
3.05231
 31
0.0
  0
LINE
  8
0
 62
     0
 10
4.21556
 20
3.05231
 30
0.0
 11
4.28597
 21
2.98872
 31
0.0
  0
LINE
  8
0
 62
     0
 10
4.28597
 20
2.98872
 30
0.0
 11
4.34722
 21
2.93078
 31
0.0
  0
LINE
  8
0
 62
     0
 10
4.34722
 20
2.93078
 30
0.0
 11
4.36735
 21
2.91114
 31
0.0
  0
LINE
  8
0
 62
     0
 10
4.36735
 20
2.91114
 30
0.0
 11
4.57221
 21
2.7111
 31
0.0
  0
LINE
  8
0
 62
     0
 10
4.57221
 20
2.7111
 30
0.0
 11
4.73193
 21
2.67219
 31
0.0
  0
LINE
  8
0
 62
     0
 10
4.73193
 20
2.67219
 30
0.0
 11
4.89165
 21
2.63336
 31
0.0
  0
LINE
  8
0
 62
     0
 10
4.89165
 20
2.63336
 30
0.0
 11
4.88124
 21
2.57015
 31
0.0
  0
LINE
  8
0
 62
     0
 10
4.88124
 20
2.57015
 30
0.0
 11
4.87978
 21
2.56147
 31
0.0
  0
LINE
  8
0
 62
     0
 10
4.87978
 20
2.56147
 30
0.0
 11
4.87408
 21
2.51535
 31
0.0
  0
LINE
  8
0
 62
     0
 10
4.87408
 20
2.51535
 30
0.0
 11
4.87142
 21
2.477
 31
0.0
  0
LINE
  8
0
 62
     0
 10
4.87142
 20
2.477
 30
0.0
 11
4.87153
 21
2.47222
 31
0.0
  0
LINE
  8
0
 62
     0
 10
4.87153
 20
2.47222
 30
0.0
 11
4.87164
 21
2.4661
 31
0.0
  0
LINE
  8
0
 62
     0
 10
4.87164
 20
2.4661
 30
0.0
 11
4.86199
 21
2.43924
 31
0.0
  0
LINE
  8
0
 62
     0
 10
4.86199
 20
2.43924
 30
0.0
 11
4.83675
 21
2.41488
 31
0.0
  0
LINE
  8
0
 62
     0
 10
4.83675
 20
2.41488
 30
0.0
 11
4.82915
 21
2.41
 31
0.0
  0
LINE
  8
0
 62
     0
 10
4.82915
 20
2.41
 30
0.0
 11
4.81808
 21
2.40294
 31
0.0
  0
LINE
  8
0
 62
     0
 10
4.81808
 20
2.40294
 30
0.0
 11
4.78842
 21
2.37642
 31
0.0
  0
LINE
  8
0
 62
     0
 10
4.78842
 20
2.37642
 30
0.0
 11
4.75435
 21
2.33425
 31
0.0
  0
LINE
  8
0
 62
     0
 10
4.75435
 20
2.33425
 30
0.0
 11
4.7309
 21
2.28965
 31
0.0
  0
LINE
  8
0
 62
     0
 10
4.7309
 20
2.28965
 30
0.0
 11
4.72222
 21
2.2589
 31
0.0
  0
LINE
  8
0
 62
     0
 10
4.72222
 20
2.2589
 30
0.0
 11
4.72222
 21
2.24858
 31
0.0
  0
LINE
  8
0
 62
     0
 10
4.72222
 20
2.24858
 30
0.0
 11
4.72222
 21
2.24354
 31
0.0
  0
LINE
  8
0
 62
     0
 10
4.72222
 20
2.24354
 30
0.0
 11
4.72049
 21
2.22831
 31
0.0
  0
LINE
  8
0
 62
     0
 10
4.72049
 20
2.22831
 30
0.0
 11
4.71386
 21
2.21528
 31
0.0
  0
LINE
  8
0
 62
     0
 10
4.71386
 20
2.21528
 30
0.0
 11
4.69993
 21
2.20703
 31
0.0
  0
LINE
  8
0
 62
     0
 10
4.69993
 20
2.20703
 30
0.0
 11
4.68229
 21
2.20231
 31
0.0
  0
LINE
  8
0
 62
     0
 10
4.68229
 20
2.20231
 30
0.0
 11
4.67638
 21
2.20117
 31
0.0
  0
LINE
  8
0
 62
     0
 10
4.67638
 20
2.20117
 30
0.0
 11
4.66331
 21
2.19874
 31
0.0
  0
LINE
  8
0
 62
     0
 10
4.66331
 20
2.19874
 30
0.0
 11
4.62614
 21
2.18067
 31
0.0
  0
LINE
  8
0
 62
     0
 10
4.62614
 20
2.18067
 30
0.0
 11
4.57579
 21
2.13851
 31
0.0
  0
LINE
  8
0
 62
     0
 10
4.57579
 20
2.13851
 30
0.0
 11
4.52647
 21
2.07601
 31
0.0
  0
LINE
  8
0
 62
     0
 10
4.52647
 20
2.07601
 30
0.0
 11
4.48996
 21
2.01546
 31
0.0
  0
LINE
  8
0
 62
     0
 10
4.48996
 20
2.01546
 30
0.0
 11
4.47944
 21
1.99447
 31
0.0
  0
LINE
  8
0
 62
     0
 10
4.47944
 20
1.99447
 30
0.0
 11
4.472
 21
1.97971
 31
0.0
  0
LINE
  8
0
 62
     0
 10
4.472
 20
1.97971
 30
0.0
 11
4.45139
 21
1.93451
 31
0.0
  0
LINE
  8
0
 62
     0
 10
4.45139
 20
1.93451
 30
0.0
 11
4.43343
 21
1.88189
 31
0.0
  0
LINE
  8
0
 62
     0
 10
4.43343
 20
1.88189
 30
0.0
 11
4.42188
 21
1.82292
 31
0.0
  0
LINE
  8
0
 62
     0
 10
4.42188
 20
1.82292
 30
0.0
 11
4.41499
 21
1.76361
 31
0.0
  0
LINE
  8
0
 62
     0
 10
4.41499
 20
1.76361
 30
0.0
 11
4.41319
 21
1.74376
 31
0.0
  0
LINE
  8
0
 62
     0
 10
4.41319
 20
1.74376
 30
0.0
 11
4.41183
 21
1.72917
 31
0.0
  0
LINE
  8
0
 62
     0
 10
4.41183
 20
1.72917
 30
0.0
 11
4.40869
 21
1.68517
 31
0.0
  0
LINE
  8
0
 62
     0
 10
4.40869
 20
1.68517
 30
0.0
 11
4.40619
 21
1.63211
 31
0.0
  0
LINE
  8
0
 62
     0
 10
4.40619
 20
1.63211
 30
0.0
 11
4.40582
 21
1.5906
 31
0.0
  0
LINE
  8
0
 62
     0
 10
4.40582
 20
1.5906
 30
0.0
 11
4.40674
 21
1.57107
 31
0.0
  0
LINE
  8
0
 62
     0
 10
4.40674
 20
1.57107
 30
0.0
 11
4.40782
 21
1.56668
 31
0.0
  0
LINE
  8
0
 62
     0
 10
4.40782
 20
1.56668
 30
0.0
 11
4.40913
 21
1.56131
 31
0.0
  0
LINE
  8
0
 62
     0
 10
4.40913
 20
1.56131
 30
0.0
 11
4.41515
 21
1.54557
 31
0.0
  0
LINE
  8
0
 62
     0
 10
4.41515
 20
1.54557
 30
0.0
 11
4.42719
 21
1.52078
 31
0.0
  0
LINE
  8
0
 62
     0
 10
4.42719
 20
1.52078
 30
0.0
 11
4.44276
 21
1.49403
 31
0.0
  0
LINE
  8
0
 62
     0
 10
4.44276
 20
1.49403
 30
0.0
 11
4.46067
 21
1.46701
 31
0.0
  0
LINE
  8
0
 62
     0
 10
4.46067
 20
1.46701
 30
0.0
 11
4.47971
 21
1.4414
 31
0.0
  0
LINE
  8
0
 62
     0
 10
4.47971
 20
1.4414
 30
0.0
 11
4.49869
 21
1.41883
 31
0.0
  0
LINE
  8
0
 62
     0
 10
4.49869
 20
1.41883
 30
0.0
 11
4.51654
 21
1.4011
 31
0.0
  0
LINE
  8
0
 62
     0
 10
4.51654
 20
1.4011
 30
0.0
 11
4.52778
 21
1.39208
 31
0.0
  0
LINE
  8
0
 62
     0
 10
4.52778
 20
1.39208
 30
0.0
 11
4.53196
 21
1.38981
 31
0.0
  0
LINE
  8
0
 62
     0
 10
4.53196
 20
1.38981
 30
0.0
 11
4.535
 21
1.38818
 31
0.0
  0
LINE
  8
0
 62
     0
 10
4.535
 20
1.38818
 30
0.0
 11
4.54411
 21
1.38281
 31
0.0
  0
LINE
  8
0
 62
     0
 10
4.54411
 20
1.38281
 30
0.0
 11
4.55274
 21
1.37554
 31
0.0
  0
LINE
  8
0
 62
     0
 10
4.55274
 20
1.37554
 30
0.0
 11
4.55767
 21
1.3661
 31
0.0
  0
LINE
  8
0
 62
     0
 10
4.55767
 20
1.3661
 30
0.0
 11
4.55886
 21
1.35248
 31
0.0
  0
LINE
  8
0
 62
     0
 10
4.55886
 20
1.35248
 30
0.0
 11
4.55626
 21
1.33268
 31
0.0
  0
LINE
  8
0
 62
     0
 10
4.55626
 20
1.33268
 30
0.0
 11
4.54981
 21
1.3048
 31
0.0
  0
LINE
  8
0
 62
     0
 10
4.54981
 20
1.3048
 30
0.0
 11
4.53933
 21
1.26676
 31
0.0
  0
LINE
  8
0
 62
     0
 10
4.53933
 20
1.26676
 30
0.0
 11
4.52843
 21
1.22922
 31
0.0
  0
LINE
  8
0
 62
     0
 10
4.52843
 20
1.22922
 30
0.0
 11
4.52479
 21
1.21669
 31
0.0
  0
LINE
  8
0
 62
     0
 10
4.52479
 20
1.21669
 30
0.0
 11
4.51856
 21
1.19537
 31
0.0
  0
LINE
  8
0
 62
     0
 10
4.51856
 20
1.19537
 30
0.0
 11
4.50564
 21
1.1295
 31
0.0
  0
LINE
  8
0
 62
     0
 10
4.50564
 20
1.1295
 30
0.0
 11
4.50537
 21
1.05783
 31
0.0
  0
LINE
  8
0
 62
     0
 10
4.50537
 20
1.05783
 30
0.0
 11
4.52485
 21
0.996149
 31
0.0
  0
LINE
  8
0
 62
     0
 10
4.52485
 20
0.996149
 30
0.0
 11
4.55333
 21
0.951878
 31
0.0
  0
LINE
  8
0
 62
     0
 10
4.55333
 20
0.951878
 30
0.0
 11
4.56489
 21
0.938911
 31
0.0
  0
LINE
  8
0
 62
     0
 10
4.56489
 20
0.938911
 30
0.0
 11
4.57585
 21
0.926594
 31
0.0
  0
LINE
  8
0
 62
     0
 10
4.57585
 20
0.926594
 30
0.0
 11
4.61187
 21
0.892307
 31
0.0
  0
LINE
  8
0
 62
     0
 10
4.61187
 20
0.892307
 30
0.0
 11
4.6594
 21
0.860189
 31
0.0
  0
LINE
  8
0
 62
     0
 10
4.6594
 20
0.860189
 30
0.0
 11
4.71322
 21
0.839572
 31
0.0
  0
LINE
  8
0
 62
     0
 10
4.71322
 20
0.839572
 30
0.0
 11
4.76253
 21
0.829372
 31
0.0
  0
LINE
  8
0
 62
     0
 10
4.76253
 20
0.829372
 30
0.0
 11
4.77919
 21
0.827311
 31
0.0
  0
LINE
  8
0
 62
     0
 10
4.77919
 20
0.827311
 30
0.0
 11
4.80078
 21
0.824707
 31
0.0
  0
LINE
  8
0
 62
     0
 10
4.80078
 20
0.824707
 30
0.0
 11
4.86719
 21
0.828939
 31
0.0
  0
LINE
  8
0
 62
     0
 10
4.86719
 20
0.828939
 30
0.0
 11
4.94488
 21
0.854492
 31
0.0
  0
LINE
  8
0
 62
     0
 10
4.94488
 20
0.854492
 30
0.0
 11
5.00765
 21
0.901693
 31
0.0
  0
LINE
  8
0
 62
     0
 10
5.00765
 20
0.901693
 30
0.0
 11
5.0434
 21
0.950142
 31
0.0
  0
LINE
  8
0
 62
     0
 10
5.0434
 20
0.950142
 30
0.0
 11
5.05106
 21
0.968045
 31
0.0
  0
LINE
  8
0
 62
     0
 10
5.05106
 20
0.968045
 30
0.0
 11
5.05643
 21
0.980686
 31
0.0
  0
LINE
  8
0
 62
     0
 10
5.05643
 20
0.980686
 30
0.0
 11
5.06483
 21
1.02192
 31
0.0
  0
LINE
  8
0
 62
     0
 10
5.06483
 20
1.02192
 30
0.0
 11
5.06896
 21
1.08615
 31
0.0
  0
LINE
  8
0
 62
     0
 10
5.06896
 20
1.08615
 30
0.0
 11
5.06353
 21
1.14583
 31
0.0
  0
LINE
  8
0
 62
     0
 10
5.06353
 20
1.14583
 30
0.0
 11
5.05496
 21
1.17795
 31
0.0
  0
LINE
  8
0
 62
     0
 10
5.05496
 20
1.17795
 30
0.0
 11
5.04878
 21
1.18609
 31
0.0
  0
LINE
  8
0
 62
     0
 10
5.04878
 20
1.18609
 30
0.0
 11
5.04585
 21
1.18994
 31
0.0
  0
LINE
  8
0
 62
     0
 10
5.04585
 20
1.18994
 30
0.0
 11
5.0339
 21
1.20904
 31
0.0
  0
LINE
  8
0
 62
     0
 10
5.0339
 20
1.20904
 30
0.0
 11
5.02778
 21
1.22103
 31
0.0
  0
LINE
  8
0
 62
     0
 10
5.02778
 20
1.22103
 30
0.0
 11
5.02778
 21
1.22499
 31
0.0
  0
LINE
  8
0
 62
     0
 10
5.02778
 20
1.22499
 30
0.0
 11
5.02778
 21
1.22754
 31
0.0
  0
LINE
  8
0
 62
     0
 10
5.02778
 20
1.22754
 30
0.0
 11
5.06917
 21
1.23508
 31
0.0
  0
LINE
  8
0
 62
     0
 10
5.06917
 20
1.23508
 30
0.0
 11
5.16064
 21
1.23682
 31
0.0
  0
LINE
  8
0
 62
     0
 10
5.16064
 20
1.23682
 30
0.0
 11
5.25319
 21
1.23128
 31
0.0
  0
LINE
  8
0
 62
     0
 10
5.25319
 20
1.23128
 30
0.0
 11
5.29628
 21
1.22434
 31
0.0
  0
LINE
  8
0
 62
     0
 10
5.29628
 20
1.22434
 30
0.0
 11
5.29769
 21
1.21946
 31
0.0
  0
LINE
  8
0
 62
     0
 10
5.29769
 20
1.21946
 30
0.0
 11
5.29839
 21
1.21696
 31
0.0
  0
LINE
  8
0
 62
     0
 10
5.29839
 20
1.21696
 30
0.0
 11
5.30094
 21
1.20481
 31
0.0
  0
LINE
  8
0
 62
     0
 10
5.30094
 20
1.20481
 30
0.0
 11
5.3061
 21
1.17833
 31
0.0
  0
LINE
  8
0
 62
     0
 10
5.3061
 20
1.17833
 30
0.0
 11
5.3125
 21
1.14361
 31
0.0
  0
LINE
  8
0
 62
     0
 10
5.3125
 20
1.14361
 30
0.0
 11
5.31776
 21
1.11404
 31
0.0
  0
LINE
  8
0
 62
     0
 10
5.31776
 20
1.11404
 30
0.0
 11
5.31944
 21
1.10417
 31
0.0
  0
LINE
  8
0
 62
     0
 10
5.31944
 20
1.10417
 30
0.0
 11
5.32449
 21
1.07454
 31
0.0
  0
LINE
  8
0
 62
     0
 10
5.32449
 20
1.07454
 30
0.0
 11
5.34375
 21
0.986274
 31
0.0
  0
LINE
  8
0
 62
     0
 10
5.34375
 20
0.986274
 30
0.0
 11
5.37272
 21
0.908583
 31
0.0
  0
LINE
  8
0
 62
     0
 10
5.37272
 20
0.908583
 30
0.0
 11
5.4139
 21
0.857096
 31
0.0
  0
LINE
  8
0
 62
     0
 10
5.4139
 20
0.857096
 30
0.0
 11
5.45888
 21
0.826118
 31
0.0
  0
LINE
  8
0
 62
     0
 10
5.45888
 20
0.826118
 30
0.0
 11
5.47499
 21
0.817817
 31
0.0
  0
LINE
  8
0
 62
     0
 10
5.47499
 20
0.817817
 30
0.0
 11
5.49582
 21
0.807129
 31
0.0
  0
LINE
  8
0
 62
     0
 10
5.49582
 20
0.807129
 30
0.0
 11
5.5676
 21
0.792751
 31
0.0
  0
LINE
  8
0
 62
     0
 10
5.5676
 20
0.792751
 30
0.0
 11
5.66792
 21
0.799263
 31
0.0
  0
LINE
  8
0
 62
     0
 10
5.66792
 20
0.799263
 30
0.0
 11
5.75635
 21
0.833171
 31
0.0
  0
LINE
  8
0
 62
     0
 10
5.75635
 20
0.833171
 30
0.0
 11
5.80464
 21
0.87321
 31
0.0
  0
LINE
  8
0
 62
     0
 10
5.80464
 20
0.87321
 30
0.0
 11
5.81353
 21
0.8903
 31
0.0
  0
LINE
  8
0
 62
     0
 10
5.81353
 20
0.8903
 30
0.0
 11
5.81956
 21
0.90191
 31
0.0
  0
LINE
  8
0
 62
     0
 10
5.81956
 20
0.90191
 30
0.0
 11
5.82954
 21
0.940972
 31
0.0
  0
LINE
  8
0
 62
     0
 10
5.82954
 20
0.940972
 30
0.0
 11
5.82628
 21
0.998643
 31
0.0
  0
LINE
  8
0
 62
     0
 10
5.82628
 20
0.998643
 30
0.0
 11
5.80279
 21
1.0682
 31
0.0
  0
LINE
  8
0
 62
     0
 10
5.80279
 20
1.0682
 30
0.0
 11
5.77024
 21
1.1333
 31
0.0
  0
LINE
  8
0
 62
     0
 10
5.77024
 20
1.1333
 30
0.0
 11
5.75814
 21
1.15419
 31
0.0
  0
LINE
  8
0
 62
     0
 10
5.75814
 20
1.15419
 30
0.0
 11
5.7519
 21
1.16498
 31
0.0
  0
LINE
  8
0
 62
     0
 10
5.7519
 20
1.16498
 30
0.0
 11
5.73351
 21
1.19743
 31
0.0
  0
LINE
  8
0
 62
     0
 10
5.73351
 20
1.19743
 30
0.0
 11
5.71326
 21
1.2347
 31
0.0
  0
LINE
  8
0
 62
     0
 10
5.71326
 20
1.2347
 30
0.0
 11
5.69949
 21
1.26199
 31
0.0
  0
LINE
  8
0
 62
     0
 10
5.69949
 20
1.26199
 30
0.0
 11
5.69444
 21
1.27176
 31
0.0
  0
LINE
  8
0
 62
     0
 10
5.69444
 20
1.27176
 30
0.0
 11
5.69444
 21
1.27501
 31
0.0
  0
LINE
  8
0
 62
     0
 10
5.69444
 20
1.27501
 30
0.0
 11
5.69444
 21
1.27837
 31
0.0
  0
LINE
  8
0
 62
     0
 10
5.69444
 20
1.27837
 30
0.0
 11
5.70969
 21
1.28836
 31
0.0
  0
LINE
  8
0
 62
     0
 10
5.70969
 20
1.28836
 30
0.0
 11
5.73888
 21
1.30219
 31
0.0
  0
LINE
  8
0
 62
     0
 10
5.73888
 20
1.30219
 30
0.0
 11
5.74582
 21
1.30469
 31
0.0
  0
LINE
  8
0
 62
     0
 10
5.74582
 20
1.30469
 30
0.0
 11
5.76047
 21
1.31
 31
0.0
  0
LINE
  8
0
 62
     0
 10
5.76047
 20
1.31
 30
0.0
 11
5.80132
 21
1.33453
 31
0.0
  0
LINE
  8
0
 62
     0
 10
5.80132
 20
1.33453
 30
0.0
 11
5.85715
 21
1.38021
 31
0.0
  0
LINE
  8
0
 62
     0
 10
5.85715
 20
1.38021
 30
0.0
 11
5.90369
 21
1.43246
 31
0.0
  0
LINE
  8
0
 62
     0
 10
5.90369
 20
1.43246
 30
0.0
 11
5.92692
 21
1.46875
 31
0.0
  0
LINE
  8
0
 62
     0
 10
5.92692
 20
1.46875
 30
0.0
 11
5.93126
 21
1.48193
 31
0.0
  0
LINE
  8
0
 62
     0
 10
5.93126
 20
1.48193
 30
0.0
 11
5.93338
 21
1.48856
 31
0.0
  0
LINE
  8
0
 62
     0
 10
5.93338
 20
1.48856
 30
0.0
 11
5.94043
 21
1.53142
 31
0.0
  0
LINE
  8
0
 62
     0
 10
5.94043
 20
1.53142
 30
0.0
 11
5.94129
 21
1.57497
 31
0.0
  0
LINE
  8
0
 62
     0
 10
5.94129
 20
1.57497
 30
0.0
 11
5.94038
 21
1.58192
 31
0.0
  0
LINE
  8
0
 62
     0
 10
5.94038
 20
1.58192
 30
0.0
 11
5.93821
 21
1.59799
 31
0.0
  0
LINE
  8
0
 62
     0
 10
5.93821
 20
1.59799
 30
0.0
 11
5.92264
 21
1.64512
 31
0.0
  0
LINE
  8
0
 62
     0
 10
5.92264
 20
1.64512
 30
0.0
 11
5.88747
 21
1.72754
 31
0.0
  0
LINE
  8
0
 62
     0
 10
5.88747
 20
1.72754
 30
0.0
 11
5.84289
 21
1.81244
 31
0.0
  0
LINE
  8
0
 62
     0
 10
5.84289
 20
1.81244
 30
0.0
 11
5.80946
 21
1.8666
 31
0.0
  0
LINE
  8
0
 62
     0
 10
5.80946
 20
1.8666
 30
0.0
 11
5.79671
 21
1.88336
 31
0.0
  0
LINE
  8
0
 62
     0
 10
5.79671
 20
1.88336
 30
0.0
 11
5.79036
 21
1.89171
 31
0.0
  0
LINE
  8
0
 62
     0
 10
5.79036
 20
1.89171
 30
0.0
 11
5.75444
 21
1.94189
 31
0.0
  0
LINE
  8
0
 62
     0
 10
5.75444
 20
1.94189
 30
0.0
 11
5.72151
 21
1.99089
 31
0.0
  0
LINE
  8
0
 62
     0
 10
5.72151
 20
1.99089
 30
0.0
 11
5.71669
 21
1.99858
 31
0.0
  0
LINE
  8
0
 62
     0
 10
5.71669
 20
1.99858
 30
0.0
 11
5.68197
 21
2.05414
 31
0.0
  0
LINE
  8
0
 62
     0
 10
5.68197
 20
2.05414
 30
0.0
 11
5.71756
 21
2.13194
 31
0.0
  0
LINE
  8
0
 62
     0
 10
5.71756
 20
2.13194
 30
0.0
 11
5.72478
 21
2.14779
 31
0.0
  0
LINE
  8
0
 62
     0
 10
5.72478
 20
2.14779
 30
0.0
 11
5.74143
 21
2.19754
 31
0.0
  0
LINE
  8
0
 62
     0
 10
5.74143
 20
2.19754
 30
0.0
 11
5.74349
 21
2.2525
 31
0.0
  0
LINE
  8
0
 62
     0
 10
5.74349
 20
2.2525
 30
0.0
 11
5.72163
 21
2.30826
 31
0.0
  0
LINE
  8
0
 62
     0
 10
5.72163
 20
2.30826
 30
0.0
 11
5.68664
 21
2.36014
 31
0.0
  0
LINE
  8
0
 62
     0
 10
5.68664
 20
2.36014
 30
0.0
 11
5.67378
 21
2.37642
 31
0.0
  0
LINE
  8
0
 62
     0
 10
5.67378
 20
2.37642
 30
0.0
 11
5.61253
 21
2.45415
 31
0.0
  0
LINE
  8
0
 62
     0
 10
5.61253
 20
2.45415
 30
0.0
 11
5.64654
 21
2.48611
 31
0.0
  0
LINE
  8
0
 62
     0
 10
5.64654
 20
2.48611
 30
0.0
 11
5.65104
 21
2.49035
 31
0.0
  0
LINE
  8
0
 62
     0
 10
5.65104
 20
2.49035
 30
0.0
 11
5.67031
 21
2.51346
 31
0.0
  0
LINE
  8
0
 62
     0
 10
5.67031
 20
2.51346
 30
0.0
 11
5.68056
 21
2.5294
 31
0.0
  0
LINE
  8
0
 62
     0
 10
5.68056
 20
2.5294
 30
0.0
 11
5.68056
 21
2.53472
 31
0.0
  0
LINE
  8
0
 62
     0
 10
5.68056
 20
2.53472
 30
0.0
 11
5.68056
 21
2.53776
 31
0.0
  0
LINE
  8
0
 62
     0
 10
5.68056
 20
2.53776
 30
0.0
 11
5.68733
 21
2.54671
 31
0.0
  0
LINE
  8
0
 62
     0
 10
5.68733
 20
2.54671
 30
0.0
 11
5.70574
 21
2.55647
 31
0.0
  0
LINE
  8
0
 62
     0
 10
5.70574
 20
2.55647
 30
0.0
 11
5.73236
 21
2.56369
 31
0.0
  0
LINE
  8
0
 62
     0
 10
5.73236
 20
2.56369
 30
0.0
 11
5.76421
 21
2.56814
 31
0.0
  0
LINE
  8
0
 62
     0
 10
5.76421
 20
2.56814
 30
0.0
 11
5.79801
 21
2.5695
 31
0.0
  0
LINE
  8
0
 62
     0
 10
5.79801
 20
2.5695
 30
0.0
 11
5.83051
 21
2.56754
 31
0.0
  0
LINE
  8
0
 62
     0
 10
5.83051
 20
2.56754
 30
0.0
 11
5.85867
 21
2.5619
 31
0.0
  0
LINE
  8
0
 62
     0
 10
5.85867
 20
2.5619
 30
0.0
 11
5.87472
 21
2.55561
 31
0.0
  0
LINE
  8
0
 62
     0
 10
5.87472
 20
2.55561
 30
0.0
 11
5.87918
 21
2.55231
 31
0.0
  0
LINE
  8
0
 62
     0
 10
5.87918
 20
2.55231
 30
0.0
 11
5.88297
 21
2.54949
 31
0.0
  0
LINE
  8
0
 62
     0
 10
5.88297
 20
2.54949
 30
0.0
 11
5.90018
 21
2.51411
 31
0.0
  0
LINE
  8
0
 62
     0
 10
5.90018
 20
2.51411
 30
0.0
 11
5.91411
 21
2.45313
 31
0.0
  0
LINE
  8
0
 62
     0
 10
5.91411
 20
2.45313
 30
0.0
 11
5.91629
 21
2.4375
 31
0.0
  0
LINE
  8
0
 62
     0
 10
5.91629
 20
2.4375
 30
0.0
 11
5.92128
 21
2.40153
 31
0.0
  0
LINE
  8
0
 62
     0
 10
5.92128
 20
2.40153
 30
0.0
 11
5.94211
 21
2.29428
 31
0.0
  0
LINE
  8
0
 62
     0
 10
5.94211
 20
2.29428
 30
0.0
 11
5.97629
 21
2.17703
 31
0.0
  0
LINE
  8
0
 62
     0
 10
5.97629
 20
2.17703
 30
0.0
 11
6.01872
 21
2.08578
 31
0.0
  0
LINE
  8
0
 62
     0
 10
6.01872
 20
2.08578
 30
0.0
 11
6.05464
 21
2.03456
 31
0.0
  0
LINE
  8
0
 62
     0
 10
6.05464
 20
2.03456
 30
0.0
 11
6.06944
 21
2.02046
 31
0.0
  0
LINE
  8
0
 62
     0
 10
6.06944
 20
2.02046
 30
0.0
 11
6.07693
 21
2.01329
 31
0.0
  0
LINE
  8
0
 62
     0
 10
6.07693
 20
2.01329
 30
0.0
 11
6.09646
 21
1.98856
 31
0.0
  0
LINE
  8
0
 62
     0
 10
6.09646
 20
1.98856
 30
0.0
 11
6.10894
 21
1.9579
 31
0.0
  0
LINE
  8
0
 62
     0
 10
6.10894
 20
1.9579
 30
0.0
 11
6.10693
 21
1.92768
 31
0.0
  0
LINE
  8
0
 62
     0
 10
6.10693
 20
1.92768
 30
0.0
 11
6.09581
 21
1.90403
 31
0.0
  0
LINE
  8
0
 62
     0
 10
6.09581
 20
1.90403
 30
0.0
 11
6.09065
 21
1.89725
 31
0.0
  0
LINE
  8
0
 62
     0
 10
6.09065
 20
1.89725
 30
0.0
 11
6.08806
 21
1.89387
 31
0.0
  0
LINE
  8
0
 62
     0
 10
6.08806
 20
1.89387
 30
0.0
 11
6.08301
 21
1.88167
 31
0.0
  0
LINE
  8
0
 62
     0
 10
6.08301
 20
1.88167
 30
0.0
 11
6.07688
 21
1.85851
 31
0.0
  0
LINE
  8
0
 62
     0
 10
6.07688
 20
1.85851
 30
0.0
 11
6.07243
 21
1.83062
 31
0.0
  0
LINE
  8
0
 62
     0
 10
6.07243
 20
1.83062
 30
0.0
 11
6.06982
 21
1.80078
 31
0.0
  0
LINE
  8
0
 62
     0
 10
6.06982
 20
1.80078
 30
0.0
 11
6.06917
 21
1.77171
 31
0.0
  0
LINE
  8
0
 62
     0
 10
6.06917
 20
1.77171
 30
0.0
 11
6.07064
 21
1.74621
 31
0.0
  0
LINE
  8
0
 62
     0
 10
6.07064
 20
1.74621
 30
0.0
 11
6.07438
 21
1.72694
 31
0.0
  0
LINE
  8
0
 62
     0
 10
6.07438
 20
1.72694
 30
0.0
 11
6.07829
 21
1.71821
 31
0.0
  0
LINE
  8
0
 62
     0
 10
6.07829
 20
1.71821
 30
0.0
 11
6.08057
 21
1.71679
 31
0.0
  0
LINE
  8
0
 62
     0
 10
6.08057
 20
1.71679
 30
0.0
 11
6.08415
 21
1.71451
 31
0.0
  0
LINE
  8
0
 62
     0
 10
6.08415
 20
1.71451
 30
0.0
 11
6.10092
 21
1.7169
 31
0.0
  0
LINE
  8
0
 62
     0
 10
6.10092
 20
1.7169
 30
0.0
 11
6.12506
 21
1.73383
 31
0.0
  0
LINE
  8
0
 62
     0
 10
6.12506
 20
1.73383
 30
0.0
 11
6.14686
 21
1.76167
 31
0.0
  0
LINE
  8
0
 62
     0
 10
6.14686
 20
1.76167
 30
0.0
 11
6.15842
 21
1.78592
 31
0.0
  0
LINE
  8
0
 62
     0
 10
6.15842
 20
1.78592
 30
0.0
 11
6.16026
 21
1.79443
 31
0.0
  0
LINE
  8
0
 62
     0
 10
6.16026
 20
1.79443
 30
0.0
 11
6.16276
 21
1.80621
 31
0.0
  0
LINE
  8
0
 62
     0
 10
6.16276
 20
1.80621
 30
0.0
 11
6.17339
 21
1.84093
 31
0.0
  0
LINE
  8
0
 62
     0
 10
6.17339
 20
1.84093
 30
0.0
 11
6.19015
 21
1.86057
 31
0.0
  0
LINE
  8
0
 62
     0
 10
6.19015
 20
1.86057
 30
0.0
 11
6.21544
 21
1.85508
 31
0.0
  0
LINE
  8
0
 62
     0
 10
6.21544
 20
1.85508
 30
0.0
 11
6.24501
 21
1.83399
 31
0.0
  0
LINE
  8
0
 62
     0
 10
6.24501
 20
1.83399
 30
0.0
 11
6.25418
 21
1.82611
 31
0.0
  0
LINE
  8
0
 62
     0
 10
6.25418
 20
1.82611
 30
0.0
 11
6.26411
 21
1.81765
 31
0.0
  0
LINE
  8
0
 62
     0
 10
6.26411
 20
1.81765
 30
0.0
 11
6.29725
 21
1.79596
 31
0.0
  0
LINE
  8
0
 62
     0
 10
6.29725
 20
1.79596
 30
0.0
 11
6.33751
 21
1.78028
 31
0.0
  0
LINE
  8
0
 62
     0
 10
6.33751
 20
1.78028
 30
0.0
 11
6.37256
 21
1.77957
 31
0.0
  0
LINE
  8
0
 62
     0
 10
6.37256
 20
1.77957
 30
0.0
 11
6.39469
 21
1.78917
 31
0.0
  0
LINE
  8
0
 62
     0
 10
6.39469
 20
1.78917
 30
0.0
 11
6.40001
 21
1.79443
 31
0.0
  0
LINE
  8
0
 62
     0
 10
6.40001
 20
1.79443
 30
0.0
 11
6.40435
 21
1.79883
 31
0.0
  0
LINE
  8
0
 62
     0
 10
6.40435
 20
1.79883
 30
0.0
 11
6.41444
 21
1.81511
 31
0.0
  0
LINE
  8
0
 62
     0
 10
6.41444
 20
1.81511
 30
0.0
 11
6.41385
 21
1.83431
 31
0.0
  0
LINE
  8
0
 62
     0
 10
6.41385
 20
1.83431
 30
0.0
 11
6.39763
 21
1.85319
 31
0.0
  0
LINE
  8
0
 62
     0
 10
6.39763
 20
1.85319
 30
0.0
 11
6.37369
 21
1.86876
 31
0.0
  0
LINE
  8
0
 62
     0
 10
6.37369
 20
1.86876
 30
0.0
 11
6.36529
 21
1.87304
 31
0.0
  0
LINE
  8
0
 62
     0
 10
6.36529
 20
1.87304
 30
0.0
 11
6.3125
 21
1.90001
 31
0.0
  0
LINE
  8
0
 62
     0
 10
6.3125
 20
1.90001
 30
0.0
 11
6.37153
 21
1.89236
 31
0.0
  0
LINE
  8
0
 62
     0
 10
6.37153
 20
1.89236
 30
0.0
 11
6.37879
 21
1.89144
 31
0.0
  0
LINE
  8
0
 62
     0
 10
6.37879
 20
1.89144
 30
0.0
 11
6.40088
 21
1.89003
 31
0.0
  0
LINE
  8
0
 62
     0
 10
6.40088
 20
1.89003
 30
0.0
 11
6.42372
 21
1.89182
 31
0.0
  0
LINE
  8
0
 62
     0
 10
6.42372
 20
1.89182
 30
0.0
 11
6.44217
 21
1.89817
 31
0.0
  0
LINE
  8
0
 62
     0
 10
6.44217
 20
1.89817
 30
0.0
 11
6.45464
 21
1.90625
 31
0.0
  0
LINE
  8
0
 62
     0
 10
6.45464
 20
1.90625
 30
0.0
 11
6.45833
 21
1.9095
 31
0.0
  0
LINE
  8
0
 62
     0
 10
6.45833
 20
1.9095
 30
0.0
 11
6.46408
 21
1.91465
 31
0.0
  0
LINE
  8
0
 62
     0
 10
6.46408
 20
1.91465
 30
0.0
 11
6.47863
 21
1.93311
 31
0.0
  0
LINE
  8
0
 62
     0
 10
6.47863
 20
1.93311
 30
0.0
 11
6.4854
 21
1.95426
 31
0.0
  0
LINE
  8
0
 62
     0
 10
6.4854
 20
1.95426
 30
0.0
 11
6.47863
 21
1.97119
 31
0.0
  0
LINE
  8
0
 62
     0
 10
6.47863
 20
1.97119
 30
0.0
 11
6.46371
 21
1.98062
 31
0.0
  0
LINE
  8
0
 62
     0
 10
6.46371
 20
1.98062
 30
0.0
 11
6.45833
 21
1.98204
 31
0.0
  0
LINE
  8
0
 62
     0
 10
6.45833
 20
1.98204
 30
0.0
 11
6.45372
 21
1.98329
 31
0.0
  0
LINE
  8
0
 62
     0
 10
6.45372
 20
1.98329
 30
0.0
 11
6.44015
 21
1.98742
 31
0.0
  0
LINE
  8
0
 62
     0
 10
6.44015
 20
1.98742
 30
0.0
 11
6.4336
 21
1.99485
 31
0.0
  0
LINE
  8
0
 62
     0
 10
6.4336
 20
1.99485
 30
0.0
 11
6.43815
 21
2.01074
 31
0.0
  0
LINE
  8
0
 62
     0
 10
6.43815
 20
2.01074
 30
0.0
 11
6.44938
 21
2.03396
 31
0.0
  0
LINE
  8
0
 62
     0
 10
6.44938
 20
2.03396
 30
0.0
 11
6.45324
 21
2.04167
 31
0.0
  0
LINE
  8
0
 62
     0
 10
6.45324
 20
2.04167
 30
0.0
 11
6.45617
 21
2.04764
 31
0.0
  0
LINE
  8
0
 62
     0
 10
6.45617
 20
2.04764
 30
0.0
 11
6.46371
 21
2.06614
 31
0.0
  0
LINE
  8
0
 62
     0
 10
6.46371
 20
2.06614
 30
0.0
 11
6.46767
 21
2.08524
 31
0.0
  0
LINE
  8
0
 62
     0
 10
6.46767
 20
2.08524
 30
0.0
 11
6.46403
 21
2.09939
 31
0.0
  0
LINE
  8
0
 62
     0
 10
6.46403
 20
2.09939
 30
0.0
 11
6.45188
 21
2.10906
 31
0.0
  0
LINE
  8
0
 62
     0
 10
6.45188
 20
2.10906
 30
0.0
 11
6.43024
 21
2.11464
 31
0.0
  0
LINE
  8
0
 62
     0
 10
6.43024
 20
2.11464
 30
0.0
 11
6.39811
 21
2.11664
 31
0.0
  0
LINE
  8
0
 62
     0
 10
6.39811
 20
2.11664
 30
0.0
 11
6.35454
 21
2.11546
 31
0.0
  0
LINE
  8
0
 62
     0
 10
6.35454
 20
2.11546
 30
0.0
 11
6.31256
 21
2.11268
 31
0.0
  0
LINE
  8
0
 62
     0
 10
6.31256
 20
2.11268
 30
0.0
 11
6.29861
 21
2.11149
 31
0.0
  0
LINE
  8
0
 62
     0
 10
6.29861
 20
2.11149
 30
0.0
 11
6.27924
 21
2.10992
 31
0.0
  0
LINE
  8
0
 62
     0
 10
6.27924
 20
2.10992
 30
0.0
 11
6.22103
 21
2.1059
 31
0.0
  0
LINE
  8
0
 62
     0
 10
6.22103
 20
2.1059
 30
0.0
 11
6.17529
 21
2.10613
 31
0.0
  0
LINE
  8
0
 62
     0
 10
6.17529
 20
2.10613
 30
0.0
 11
6.14817
 21
2.11367
 31
0.0
  0
LINE
  8
0
 62
     0
 10
6.14817
 20
2.11367
 30
0.0
 11
6.1314
 21
2.12537
 31
0.0
  0
LINE
  8
0
 62
     0
 10
6.1314
 20
2.12537
 30
0.0
 11
6.12642
 21
2.12989
 31
0.0
  0
LINE
  8
0
 62
     0
 10
6.12642
 20
2.12989
 30
0.0
 11
6.1096
 21
2.14492
 31
0.0
  0
LINE
  8
0
 62
     0
 10
6.1096
 20
2.14492
 30
0.0
 11
6.07406
 21
2.20654
 31
0.0
  0
LINE
  8
0
 62
     0
 10
6.07406
 20
2.20654
 30
0.0
 11
6.03618
 21
2.31717
 31
0.0
  0
LINE
  8
0
 62
     0
 10
6.03618
 20
2.31717
 30
0.0
 11
6.01856
 21
2.43778
 31
0.0
  0
LINE
  8
0
 62
     0
 10
6.01856
 20
2.43778
 30
0.0
 11
6.0204
 21
2.51887
 31
0.0
  0
LINE
  8
0
 62
     0
 10
6.0204
 20
2.51887
 30
0.0
 11
6.02686
 21
2.54443
 31
0.0
  0
LINE
  8
0
 62
     0
 10
6.02686
 20
2.54443
 30
0.0
 11
6.02924
 21
2.55404
 31
0.0
  0
LINE
  8
0
 62
     0
 10
6.02924
 20
2.55404
 30
0.0
 11
6.03564
 21
2.58306
 31
0.0
  0
LINE
  8
0
 62
     0
 10
6.03564
 20
2.58306
 30
0.0
 11
6.03728
 21
2.60758
 31
0.0
  0
LINE
  8
0
 62
     0
 10
6.03728
 20
2.60758
 30
0.0
 11
6.03097
 21
2.625
 31
0.0
  0
LINE
  8
0
 62
     0
 10
6.03097
 20
2.625
 30
0.0
 11
6.01997
 21
2.63835
 31
0.0
  0
LINE
  8
0
 62
     0
 10
6.01997
 20
2.63835
 30
0.0
 11
6.01594
 21
2.64236
 31
0.0
  0
LINE
  8
0
 62
     0
 10
6.01594
 20
2.64236
 30
0.0
 11
6.01178
 21
2.64654
 31
0.0
  0
LINE
  8
0
 62
     0
 10
6.01178
 20
2.64654
 30
0.0
 11
5.99735
 21
2.65707
 31
0.0
  0
LINE
  8
0
 62
     0
 10
5.99735
 20
2.65707
 30
0.0
 11
5.97325
 21
2.66531
 31
0.0
  0
LINE
  8
0
 62
     0
 10
5.97325
 20
2.66531
 30
0.0
 11
5.93636
 21
2.66851
 31
0.0
  0
LINE
  8
0
 62
     0
 10
5.93636
 20
2.66851
 30
0.0
 11
5.89344
 21
2.66846
 31
0.0
  0
LINE
  8
0
 62
     0
 10
5.89344
 20
2.66846
 30
0.0
 11
5.87918
 21
2.66808
 31
0.0
  0
LINE
  8
0
 62
     0
 10
5.87918
 20
2.66808
 30
0.0
 11
5.86774
 21
2.66781
 31
0.0
  0
LINE
  8
0
 62
     0
 10
5.86774
 20
2.66781
 30
0.0
 11
5.83356
 21
2.66639
 31
0.0
  0
LINE
  8
0
 62
     0
 10
5.83356
 20
2.66639
 30
0.0
 11
5.78976
 21
2.66385
 31
0.0
  0
LINE
  8
0
 62
     0
 10
5.78976
 20
2.66385
 30
0.0
 11
5.75261
 21
2.66086
 31
0.0
  0
LINE
  8
0
 62
     0
 10
5.75261
 20
2.66086
 30
0.0
 11
5.73313
 21
2.65875
 31
0.0
  0
LINE
  8
0
 62
     0
 10
5.73313
 20
2.65875
 30
0.0
 11
5.72711
 21
2.65767
 31
0.0
  0
LINE
  8
0
 62
     0
 10
5.72711
 20
2.65767
 30
0.0
 11
5.72092
 21
2.65657
 31
0.0
  0
LINE
  8
0
 62
     0
 10
5.72092
 20
2.65657
 30
0.0
 11
5.70199
 21
2.65522
 31
0.0
  0
LINE
  8
0
 62
     0
 10
5.70199
 20
2.65522
 30
0.0
 11
5.68463
 21
2.66228
 31
0.0
  0
LINE
  8
0
 62
     0
 10
5.68463
 20
2.66228
 30
0.0
 11
5.66889
 21
2.68419
 31
0.0
  0
LINE
  8
0
 62
     0
 10
5.66889
 20
2.68419
 30
0.0
 11
5.65343
 21
2.71576
 31
0.0
  0
LINE
  8
0
 62
     0
 10
5.65343
 20
2.71576
 30
0.0
 11
5.6486
 21
2.7264
 31
0.0
  0
LINE
  8
0
 62
     0
 10
5.6486
 20
2.7264
 30
0.0
 11
5.64492
 21
2.73449
 31
0.0
  0
LINE
  8
0
 62
     0
 10
5.64492
 20
2.73449
 30
0.0
 11
5.63286
 21
2.75825
 31
0.0
  0
LINE
  8
0
 62
     0
 10
5.63286
 20
2.75825
 30
0.0
 11
5.6155
 21
2.78885
 31
0.0
  0
LINE
  8
0
 62
     0
 10
5.6155
 20
2.78885
 30
0.0
 11
5.59874
 21
2.81461
 31
0.0
  0
LINE
  8
0
 62
     0
 10
5.59874
 20
2.81461
 30
0.0
 11
5.58865
 21
2.82801
 31
0.0
  0
LINE
  8
0
 62
     0
 10
5.58865
 20
2.82801
 30
0.0
 11
5.58475
 21
2.83192
 31
0.0
  0
LINE
  8
0
 62
     0
 10
5.58475
 20
2.83192
 30
0.0
 11
5.55556
 21
2.86111
 31
0.0
  0
LINE
  8
0
 62
     0
 10
5.55556
 20
2.86111
 30
0.0
 11
5.6301
 21
2.97917
 31
0.0
  0
LINE
  8
0
 62
     0
 10
5.6301
 20
2.97917
 30
0.0
 11
5.64903
 21
3.00922
 31
0.0
  0
LINE
  8
0
 62
     0
 10
5.64903
 20
3.00922
 30
0.0
 11
5.69965
 21
3.10325
 31
0.0
  0
LINE
  8
0
 62
     0
 10
5.69965
 20
3.10325
 30
0.0
 11
5.74593
 21
3.22125
 31
0.0
  0
LINE
  8
0
 62
     0
 10
5.74593
 20
3.22125
 30
0.0
 11
5.77175
 21
3.34289
 31
0.0
  0
LINE
  8
0
 62
     0
 10
5.77175
 20
3.34289
 30
0.0
 11
5.77994
 21
3.44407
 31
0.0
  0
LINE
  8
0
 62
     0
 10
5.77994
 20
3.44407
 30
0.0
 11
5.78006
 21
3.47775
 31
0.0
  0
LINE
  8
0
 62
     0
 10
5.78006
 20
3.47775
 30
0.0
 11
5.78011
 21
3.50276
 31
0.0
  0
LINE
  8
0
 62
     0
 10
5.78011
 20
3.50276
 30
0.0
 11
5.77468
 21
3.61203
 31
0.0
  0
LINE
  8
0
 62
     0
 10
5.77468
 20
3.61203
 30
0.0
 11
5.76193
 21
3.69596
 31
0.0
  0
LINE
  8
0
 62
     0
 10
5.76193
 20
3.69596
 30
0.0
 11
5.75836
 21
3.70833
 31
0.0
  0
LINE
  8
0
 62
     0
 10
5.75836
 20
3.70833
 30
0.0
 11
5.75553
 21
3.71793
 31
0.0
  0
LINE
  8
0
 62
     0
 10
5.75553
 20
3.71793
 30
0.0
 11
5.74744
 21
3.74681
 31
0.0
  0
LINE
  8
0
 62
     0
 10
5.74744
 20
3.74681
 30
0.0
 11
5.73426
 21
3.79492
 31
0.0
  0
LINE
  8
0
 62
     0
 10
5.73426
 20
3.79492
 30
0.0
 11
5.72043
 21
3.84668
 31
0.0
  0
LINE
  8
0
 62
     0
 10
5.72043
 20
3.84668
 30
0.0
 11
5.71078
 21
3.88357
 31
0.0
  0
LINE
  8
0
 62
     0
 10
5.71078
 20
3.88357
 30
0.0
 11
5.70763
 21
3.89583
 31
0.0
  0
LINE
  8
0
 62
     0
 10
5.70763
 20
3.89583
 30
0.0
 11
5.70454
 21
3.90793
 31
0.0
  0
LINE
  8
0
 62
     0
 10
5.70454
 20
3.90793
 30
0.0
 11
5.69417
 21
3.9439
 31
0.0
  0
LINE
  8
0
 62
     0
 10
5.69417
 20
3.9439
 30
0.0
 11
5.67854
 21
3.99268
 31
0.0
  0
LINE
  8
0
 62
     0
 10
5.67854
 20
3.99268
 30
0.0
 11
5.66271
 21
4.0364
 31
0.0
  0
LINE
  8
0
 62
     0
 10
5.66271
 20
4.0364
 30
0.0
 11
5.65256
 21
4.06142
 31
0.0
  0
LINE
  8
0
 62
     0
 10
5.65256
 20
4.06142
 30
0.0
 11
5.64865
 21
4.06944
 31
0.0
  0
LINE
  8
0
 62
     0
 10
5.64865
 20
4.06944
 30
0.0
 11
5.64214
 21
4.08285
 31
0.0
  0
LINE
  8
0
 62
     0
 10
5.64214
 20
4.08285
 30
0.0
 11
5.61496
 21
4.11919
 31
0.0
  0
LINE
  8
0
 62
     0
 10
5.61496
 20
4.11919
 30
0.0
 11
5.56401
 21
4.17063
 31
0.0
  0
LINE
  8
0
 62
     0
 10
5.56401
 20
4.17063
 30
0.0
 11
5.5019
 21
4.21843
 31
0.0
  0
LINE
  8
0
 62
     0
 10
5.5019
 20
4.21843
 30
0.0
 11
5.45215
 21
4.24881
 31
0.0
  0
LINE
  8
0
 62
     0
 10
5.45215
 20
4.24881
 30
0.0
 11
5.43474
 21
4.25717
 31
0.0
  0
LINE
  8
0
 62
     0
 10
5.43474
 20
4.25717
 30
0.0
 11
5.42844
 21
4.26019
 31
0.0
  0
LINE
  8
0
 62
     0
 10
5.42844
 20
4.26019
 30
0.0
 11
5.4024
 21
4.27636
 31
0.0
  0
LINE
  8
0
 62
     0
 10
5.4024
 20
4.27636
 30
0.0
 11
5.38889
 21
4.28787
 31
0.0
  0
LINE
  8
0
 62
     0
 10
5.38889
 20
4.28787
 30
0.0
 11
5.38889
 21
4.29167
 31
0.0
  0
LINE
  8
0
 62
     0
 10
5.38889
 20
4.29167
 30
0.0
 11
5.38889
 21
4.29389
 31
0.0
  0
LINE
  8
0
 62
     0
 10
5.38889
 20
4.29389
 30
0.0
 11
5.38547
 21
4.3004
 31
0.0
  0
LINE
  8
0
 62
     0
 10
5.38547
 20
4.3004
 30
0.0
 11
5.37631
 21
4.31489
 31
0.0
  0
LINE
  8
0
 62
     0
 10
5.37631
 20
4.31489
 30
0.0
 11
5.36279
 21
4.33306
 31
0.0
  0
LINE
  8
0
 62
     0
 10
5.36279
 20
4.33306
 30
0.0
 11
5.35069
 21
4.34799
 31
0.0
  0
LINE
  8
0
 62
     0
 10
5.35069
 20
4.34799
 30
0.0
 11
5.34651
 21
4.35275
 31
0.0
  0
LINE
  8
0
 62
     0
 10
5.34651
 20
4.35275
 30
0.0
 11
5.33757
 21
4.36301
 31
0.0
  0
LINE
  8
0
 62
     0
 10
5.33757
 20
4.36301
 30
0.0
 11
5.30567
 21
4.38921
 31
0.0
  0
LINE
  8
0
 62
     0
 10
5.30567
 20
4.38921
 30
0.0
 11
5.26579
 21
4.40272
 31
0.0
  0
LINE
  8
0
 62
     0
 10
5.26579
 20
4.40272
 30
0.0
 11
5.22547
 21
4.39333
 31
0.0
  0
LINE
  8
0
 62
     0
 10
5.22547
 20
4.39333
 30
0.0
 11
5.1926
 21
4.37044
 31
0.0
  0
LINE
  8
0
 62
     0
 10
5.1926
 20
4.37044
 30
0.0
 11
5.18332
 21
4.36111
 31
0.0
  0
LINE
  8
0
 62
     0
 10
5.28717
 20
4.31108
 30
0.0
 11
5.28792
 21
4.30875
 31
0.0
  0
LINE
  8
0
 62
     0
 10
5.28792
 20
4.30875
 30
0.0
 11
5.27957
 21
4.29801
 31
0.0
  0
LINE
  8
0
 62
     0
 10
5.27957
 20
4.29801
 30
0.0
 11
5.2564
 21
4.28651
 31
0.0
  0
LINE
  8
0
 62
     0
 10
5.2564
 20
4.28651
 30
0.0
 11
5.2296
 21
4.28071
 31
0.0
  0
LINE
  8
0
 62
     0
 10
5.2296
 20
4.28071
 30
0.0
 11
5.21386
 21
4.28196
 31
0.0
  0
LINE
  8
0
 62
     0
 10
5.21386
 20
4.28196
 30
0.0
 11
5.2111
 21
4.28472
 31
0.0
  0
LINE
  8
0
 62
     0
 10
5.2111
 20
4.28472
 30
0.0
 11
5.21018
 21
4.28564
 31
0.0
  0
LINE
  8
0
 62
     0
 10
5.21018
 20
4.28564
 30
0.0
 11
5.21143
 21
4.29585
 31
0.0
  0
LINE
  8
0
 62
     0
 10
5.21143
 20
4.29585
 30
0.0
 11
5.21924
 21
4.30974
 31
0.0
  0
LINE
  8
0
 62
     0
 10
5.21924
 20
4.30974
 30
0.0
 11
5.22157
 21
4.3125
 31
0.0
  0
LINE
  8
0
 62
     0
 10
5.22157
 20
4.3125
 30
0.0
 11
5.22504
 21
4.31668
 31
0.0
  0
LINE
  8
0
 62
     0
 10
5.22504
 20
4.31668
 30
0.0
 11
5.23921
 21
4.32611
 31
0.0
  0
LINE
  8
0
 62
     0
 10
5.23921
 20
4.32611
 30
0.0
 11
5.25885
 21
4.33035
 31
0.0
  0
LINE
  8
0
 62
     0
 10
5.25885
 20
4.33035
 30
0.0
 11
5.27621
 21
4.32531
 31
0.0
  0
LINE
  8
0
 62
     0
 10
5.27621
 20
4.32531
 30
0.0
 11
5.28581
 21
4.31511
 31
0.0
  0
LINE
  8
0
 62
     0
 10
5.28581
 20
4.31511
 30
0.0
 11
5.28717
 21
4.31108
 31
0.0
  0
LINE
  8
0
 62
     0
 10
5.3514
 20
4.21029
 30
0.0
 11
5.354
 21
4.20921
 31
0.0
  0
LINE
  8
0
 62
     0
 10
5.354
 20
4.20921
 30
0.0
 11
5.36117
 21
4.20394
 31
0.0
  0
LINE
  8
0
 62
     0
 10
5.36117
 20
4.20394
 30
0.0
 11
5.35932
 21
4.19618
 31
0.0
  0
LINE
  8
0
 62
     0
 10
5.35932
 20
4.19618
 30
0.0
 11
5.34424
 21
4.18544
 31
0.0
  0
LINE
  8
0
 62
     0
 10
5.34424
 20
4.18544
 30
0.0
 11
5.32206
 21
4.17378
 31
0.0
  0
LINE
  8
0
 62
     0
 10
5.32206
 20
4.17378
 30
0.0
 11
5.31456
 21
4.17014
 31
0.0
  0
LINE
  8
0
 62
     0
 10
5.31456
 20
4.17014
 30
0.0
 11
5.30567
 21
4.16585
 31
0.0
  0
LINE
  8
0
 62
     0
 10
5.30567
 20
4.16585
 30
0.0
 11
5.27869
 21
4.15354
 31
0.0
  0
LINE
  8
0
 62
     0
 10
5.27869
 20
4.15354
 30
0.0
 11
5.2576
 21
4.14768
 31
0.0
  0
LINE
  8
0
 62
     0
 10
5.2576
 20
4.14768
 30
0.0
 11
5.24343
 21
4.1524
 31
0.0
  0
LINE
  8
0
 62
     0
 10
5.24343
 20
4.1524
 30
0.0
 11
5.23199
 21
4.16347
 31
0.0
  0
LINE
  8
0
 62
     0
 10
5.23199
 20
4.16347
 30
0.0
 11
5.22846
 21
4.16737
 31
0.0
  0
LINE
  8
0
 62
     0
 10
5.22846
 20
4.16737
 30
0.0
 11
5.2251
 21
4.17111
 31
0.0
  0
LINE
  8
0
 62
     0
 10
5.2251
 20
4.17111
 30
0.0
 11
5.21556
 21
4.18283
 31
0.0
  0
LINE
  8
0
 62
     0
 10
5.21556
 20
4.18283
 30
0.0
 11
5.21224
 21
4.19249
 31
0.0
  0
LINE
  8
0
 62
     0
 10
5.21224
 20
4.19249
 30
0.0
 11
5.21935
 21
4.19971
 31
0.0
  0
LINE
  8
0
 62
     0
 10
5.21935
 20
4.19971
 30
0.0
 11
5.23292
 21
4.20589
 31
0.0
  0
LINE
  8
0
 62
     0
 10
5.23292
 20
4.20589
 30
0.0
 11
5.23753
 21
4.20768
 31
0.0
  0
LINE
  8
0
 62
     0
 10
5.23753
 20
4.20768
 30
0.0
 11
5.24756
 21
4.21169
 31
0.0
  0
LINE
  8
0
 62
     0
 10
5.24756
 20
4.21169
 30
0.0
 11
5.2965
 21
4.22038
 31
0.0
  0
LINE
  8
0
 62
     0
 10
5.2965
 20
4.22038
 30
0.0
 11
5.34267
 21
4.21386
 31
0.0
  0
LINE
  8
0
 62
     0
 10
5.34267
 20
4.21386
 30
0.0
 11
5.3514
 21
4.21029
 31
0.0
  0
LINE
  8
0
 62
     0
 10
5.20763
 20
4.09446
 30
0.0
 11
5.21149
 21
4.09033
 31
0.0
  0
LINE
  8
0
 62
     0
 10
5.21149
 20
4.09033
 30
0.0
 11
5.22163
 21
4.07633
 31
0.0
  0
LINE
  8
0
 62
     0
 10
5.22163
 20
4.07633
 30
0.0
 11
5.23079
 21
4.05832
 31
0.0
  0
LINE
  8
0
 62
     0
 10
5.23079
 20
4.05832
 30
0.0
 11
5.23535
 21
4.04178
 31
0.0
  0
LINE
  8
0
 62
     0
 10
5.23535
 20
4.04178
 30
0.0
 11
5.23557
 21
4.02815
 31
0.0
  0
LINE
  8
0
 62
     0
 10
5.23557
 20
4.02815
 30
0.0
 11
5.23161
 21
4.01882
 31
0.0
  0
LINE
  8
0
 62
     0
 10
5.23161
 20
4.01882
 30
0.0
 11
5.22374
 21
4.01519
 31
0.0
  0
LINE
  8
0
 62
     0
 10
5.22374
 20
4.01519
 30
0.0
 11
5.21218
 21
4.01861
 31
0.0
  0
LINE
  8
0
 62
     0
 10
5.21218
 20
4.01861
 30
0.0
 11
5.20057
 21
4.02724
 31
0.0
  0
LINE
  8
0
 62
     0
 10
5.20057
 20
4.02724
 30
0.0
 11
5.19721
 21
4.03054
 31
0.0
  0
LINE
  8
0
 62
     0
 10
5.19721
 20
4.03054
 30
0.0
 11
5.19385
 21
4.0339
 31
0.0
  0
LINE
  8
0
 62
     0
 10
5.19385
 20
4.0339
 30
0.0
 11
5.17833
 21
4.04053
 31
0.0
  0
LINE
  8
0
 62
     0
 10
5.17833
 20
4.04053
 30
0.0
 11
5.15831
 21
4.03369
 31
0.0
  0
LINE
  8
0
 62
     0
 10
5.15831
 20
4.03369
 30
0.0
 11
5.15278
 21
4.03028
 31
0.0
  0
LINE
  8
0
 62
     0
 10
5.15278
 20
4.03028
 30
0.0
 11
5.14844
 21
4.02767
 31
0.0
  0
LINE
  8
0
 62
     0
 10
5.14844
 20
4.02767
 30
0.0
 11
5.13374
 21
4.02274
 31
0.0
  0
LINE
  8
0
 62
     0
 10
5.13374
 20
4.02274
 30
0.0
 11
5.12506
 21
4.02979
 31
0.0
  0
LINE
  8
0
 62
     0
 10
5.12506
 20
4.02979
 30
0.0
 11
5.12663
 21
4.05176
 31
0.0
  0
LINE
  8
0
 62
     0
 10
5.12663
 20
4.05176
 30
0.0
 11
5.13493
 21
4.07981
 31
0.0
  0
LINE
  8
0
 62
     0
 10
5.13493
 20
4.07981
 30
0.0
 11
5.13835
 21
4.08886
 31
0.0
  0
LINE
  8
0
 62
     0
 10
5.13835
 20
4.08886
 30
0.0
 11
5.14079
 21
4.09543
 31
0.0
  0
LINE
  8
0
 62
     0
 10
5.14079
 20
4.09543
 30
0.0
 11
5.15093
 21
4.11415
 31
0.0
  0
LINE
  8
0
 62
     0
 10
5.15093
 20
4.11415
 30
0.0
 11
5.16521
 21
4.12343
 31
0.0
  0
LINE
  8
0
 62
     0
 10
5.16521
 20
4.12343
 30
0.0
 11
5.18338
 21
4.11675
 31
0.0
  0
LINE
  8
0
 62
     0
 10
5.18338
 20
4.11675
 30
0.0
 11
5.20204
 21
4.10047
 31
0.0
  0
LINE
  8
0
 62
     0
 10
5.20204
 20
4.10047
 30
0.0
 11
5.20763
 21
4.09446
 31
0.0
  0
LINE
  8
0
 62
     0
 10
5.41678
 20
4.09028
 30
0.0
 11
5.41862
 21
4.08535
 31
0.0
  0
LINE
  8
0
 62
     0
 10
5.41862
 20
4.08535
 30
0.0
 11
5.42626
 21
4.04764
 31
0.0
  0
LINE
  8
0
 62
     0
 10
5.42626
 20
4.04764
 30
0.0
 11
5.4299
 21
4.00385
 31
0.0
  0
LINE
  8
0
 62
     0
 10
5.4299
 20
4.00385
 30
0.0
 11
5.42985
 21
3.99582
 31
0.0
  0
LINE
  8
0
 62
     0
 10
5.42985
 20
3.99582
 30
0.0
 11
5.42914
 21
3.9375
 31
0.0
  0
LINE
  8
0
 62
     0
 10
5.42914
 20
3.9375
 30
0.0
 11
5.40961
 21
3.97364
 31
0.0
  0
LINE
  8
0
 62
     0
 10
5.40961
 20
3.97364
 30
0.0
 11
5.40397
 21
3.98406
 31
0.0
  0
LINE
  8
0
 62
     0
 10
5.40397
 20
3.98406
 30
0.0
 11
5.37142
 21
4.01644
 31
0.0
  0
LINE
  8
0
 62
     0
 10
5.37142
 20
4.01644
 30
0.0
 11
5.33431
 21
4.02186
 31
0.0
  0
LINE
  8
0
 62
     0
 10
5.33431
 20
4.02186
 30
0.0
 11
5.32639
 21
4.01878
 31
0.0
  0
LINE
  8
0
 62
     0
 10
5.32639
 20
4.01878
 30
0.0
 11
5.32286
 21
4.01747
 31
0.0
  0
LINE
  8
0
 62
     0
 10
5.32286
 20
4.01747
 30
0.0
 11
5.31028
 21
4.01882
 31
0.0
  0
LINE
  8
0
 62
     0
 10
5.31028
 20
4.01882
 30
0.0
 11
5.30669
 21
4.03336
 31
0.0
  0
LINE
  8
0
 62
     0
 10
5.30669
 20
4.03336
 30
0.0
 11
5.315
 21
4.05817
 31
0.0
  0
LINE
  8
0
 62
     0
 10
5.315
 20
4.05817
 30
0.0
 11
5.32915
 21
4.08176
 31
0.0
  0
LINE
  8
0
 62
     0
 10
5.32915
 20
4.08176
 30
0.0
 11
5.33479
 21
4.08886
 31
0.0
  0
LINE
  8
0
 62
     0
 10
5.33479
 20
4.08886
 30
0.0
 11
5.34033
 21
4.09597
 31
0.0
  0
LINE
  8
0
 62
     0
 10
5.34033
 20
4.09597
 30
0.0
 11
5.36029
 21
4.11475
 31
0.0
  0
LINE
  8
0
 62
     0
 10
5.36029
 20
4.11475
 30
0.0
 11
5.38282
 21
4.12364
 31
0.0
  0
LINE
  8
0
 62
     0
 10
5.38282
 20
4.12364
 30
0.0
 11
5.40175
 21
4.1155
 31
0.0
  0
LINE
  8
0
 62
     0
 10
5.40175
 20
4.1155
 30
0.0
 11
5.41417
 21
4.09706
 31
0.0
  0
LINE
  8
0
 62
     0
 10
5.41417
 20
4.09706
 30
0.0
 11
5.41678
 21
4.09028
 31
0.0
  0
LINE
  8
0
 62
     0
 10
5.53521
 20
4.07086
 30
0.0
 11
5.5401
 21
4.06342
 31
0.0
  0
LINE
  8
0
 62
     0
 10
5.5401
 20
4.06342
 30
0.0
 11
5.5535
 21
4.03467
 31
0.0
  0
LINE
  8
0
 62
     0
 10
5.5535
 20
4.03467
 30
0.0
 11
5.5771
 21
3.97601
 31
0.0
  0
LINE
  8
0
 62
     0
 10
5.5771
 20
3.97601
 30
0.0
 11
5.60286
 21
3.90321
 31
0.0
  0
LINE
  8
0
 62
     0
 10
5.60286
 20
3.90321
 30
0.0
 11
5.6219
 21
3.84418
 31
0.0
  0
LINE
  8
0
 62
     0
 10
5.6219
 20
3.84418
 30
0.0
 11
5.62776
 21
3.82433
 31
0.0
  0
LINE
  8
0
 62
     0
 10
5.62776
 20
3.82433
 30
0.0
 11
5.63547
 21
3.79829
 31
0.0
  0
LINE
  8
0
 62
     0
 10
5.63547
 20
3.79829
 30
0.0
 11
5.65739
 21
3.71967
 31
0.0
  0
LINE
  8
0
 62
     0
 10
5.65739
 20
3.71967
 30
0.0
 11
5.67437
 21
3.64378
 31
0.0
  0
LINE
  8
0
 62
     0
 10
5.67437
 20
3.64378
 30
0.0
 11
5.68181
 21
3.57883
 31
0.0
  0
LINE
  8
0
 62
     0
 10
5.68181
 20
3.57883
 30
0.0
 11
5.683
 21
3.5249
 31
0.0
  0
LINE
  8
0
 62
     0
 10
5.683
 20
3.5249
 30
0.0
 11
5.68272
 21
3.50694
 31
0.0
  0
LINE
  8
0
 62
     0
 10
5.68272
 20
3.50694
 30
0.0
 11
5.68213
 21
3.46946
 31
0.0
  0
LINE
  8
0
 62
     0
 10
5.68213
 20
3.46946
 30
0.0
 11
5.66954
 21
3.35699
 31
0.0
  0
LINE
  8
0
 62
     0
 10
5.66954
 20
3.35699
 30
0.0
 11
5.63525
 21
3.21408
 31
0.0
  0
LINE
  8
0
 62
     0
 10
5.63525
 20
3.21408
 30
0.0
 11
5.58018
 21
3.07943
 31
0.0
  0
LINE
  8
0
 62
     0
 10
5.58018
 20
3.07943
 30
0.0
 11
5.52588
 21
2.98389
 31
0.0
  0
LINE
  8
0
 62
     0
 10
5.52588
 20
2.98389
 30
0.0
 11
5.50478
 21
2.95415
 31
0.0
  0
LINE
  8
0
 62
     0
 10
5.50478
 20
2.95415
 30
0.0
 11
5.50006
 21
2.9476
 31
0.0
  0
LINE
  8
0
 62
     0
 10
5.50006
 20
2.9476
 30
0.0
 11
5.48665
 21
2.92736
 31
0.0
  0
LINE
  8
0
 62
     0
 10
5.48665
 20
2.92736
 30
0.0
 11
5.4719
 21
2.90272
 31
0.0
  0
LINE
  8
0
 62
     0
 10
5.4719
 20
2.90272
 30
0.0
 11
5.46197
 21
2.88303
 31
0.0
  0
LINE
  8
0
 62
     0
 10
5.46197
 20
2.88303
 30
0.0
 11
5.45833
 21
2.87392
 31
0.0
  0
LINE
  8
0
 62
     0
 10
5.45833
 20
2.87392
 30
0.0
 11
5.45833
 21
2.87082
 31
0.0
  0
LINE
  8
0
 62
     0
 10
5.45833
 20
2.87082
 30
0.0
 11
5.45833
 21
2.8666
 31
0.0
  0
LINE
  8
0
 62
     0
 10
5.45833
 20
2.8666
 30
0.0
 11
5.45204
 21
2.85385
 31
0.0
  0
LINE
  8
0
 62
     0
 10
5.45204
 20
2.85385
 30
0.0
 11
5.43506
 21
2.83333
 31
0.0
  0
LINE
  8
0
 62
     0
 10
5.43506
 20
2.83333
 30
0.0
 11
5.40994
 21
2.81108
 31
0.0
  0
LINE
  8
0
 62
     0
 10
5.40994
 20
2.81108
 30
0.0
 11
5.3795
 21
2.78885
 31
0.0
  0
LINE
  8
0
 62
     0
 10
5.3795
 20
2.78885
 30
0.0
 11
5.34625
 21
2.7685
 31
0.0
  0
LINE
  8
0
 62
     0
 10
5.34625
 20
2.7685
 30
0.0
 11
5.31299
 21
2.75168
 31
0.0
  0
LINE
  8
0
 62
     0
 10
5.31299
 20
2.75168
 30
0.0
 11
5.28233
 21
2.74035
 31
0.0
  0
LINE
  8
0
 62
     0
 10
5.28233
 20
2.74035
 30
0.0
 11
5.26329
 21
2.73611
 31
0.0
  0
LINE
  8
0
 62
     0
 10
5.26329
 20
2.73611
 30
0.0
 11
5.25694
 21
2.73611
 31
0.0
  0
LINE
  8
0
 62
     0
 10
5.25694
 20
2.73611
 30
0.0
 11
5.2416
 21
2.73611
 31
0.0
  0
LINE
  8
0
 62
     0
 10
5.2416
 20
2.73611
 30
0.0
 11
5.19569
 21
2.75732
 31
0.0
  0
LINE
  8
0
 62
     0
 10
5.19569
 20
2.75732
 30
0.0
 11
5.12235
 21
2.81185
 31
0.0
  0
LINE
  8
0
 62
     0
 10
5.12235
 20
2.81185
 30
0.0
 11
5.05197
 21
2.88612
 31
0.0
  0
LINE
  8
0
 62
     0
 10
5.05197
 20
2.88612
 30
0.0
 11
5.00999
 21
2.94526
 31
0.0
  0
LINE
  8
0
 62
     0
 10
5.00999
 20
2.94526
 30
0.0
 11
4.99968
 21
2.96669
 31
0.0
  0
LINE
  8
0
 62
     0
 10
4.99968
 20
2.96669
 30
0.0
 11
4.99669
 21
2.97287
 31
0.0
  0
LINE
  8
0
 62
     0
 10
4.99669
 20
2.97287
 30
0.0
 11
4.9885
 21
2.99175
 31
0.0
  0
LINE
  8
0
 62
     0
 10
4.9885
 20
2.99175
 30
0.0
 11
4.98063
 21
3.0134
 31
0.0
  0
LINE
  8
0
 62
     0
 10
4.98063
 20
3.0134
 30
0.0
 11
4.97683
 21
3.0294
 31
0.0
  0
LINE
  8
0
 62
     0
 10
4.97683
 20
3.0294
 30
0.0
 11
4.97661
 21
3.0364
 31
0.0
  0
LINE
  8
0
 62
     0
 10
4.97661
 20
3.0364
 30
0.0
 11
4.97775
 21
3.03749
 31
0.0
  0
LINE
  8
0
 62
     0
 10
4.97775
 20
3.03749
 30
0.0
 11
4.97889
 21
3.03868
 31
0.0
  0
LINE
  8
0
 62
     0
 10
4.97889
 20
3.03868
 30
0.0
 11
4.98731
 21
3.04053
 31
0.0
  0
LINE
  8
0
 62
     0
 10
4.98731
 20
3.04053
 30
0.0
 11
5.00726
 21
3.04249
 31
0.0
  0
LINE
  8
0
 62
     0
 10
5.00726
 20
3.04249
 30
0.0
 11
5.03467
 21
3.04324
 31
0.0
  0
LINE
  8
0
 62
     0
 10
5.03467
 20
3.04324
 30
0.0
 11
5.05865
 21
3.04297
 31
0.0
  0
LINE
  8
0
 62
     0
 10
5.05865
 20
3.04297
 30
0.0
 11
5.06668
 21
3.04264
 31
0.0
  0
LINE
  8
0
 62
     0
 10
5.06668
 20
3.04264
 30
0.0
 11
5.09044
 21
3.04172
 31
0.0
  0
LINE
  8
0
 62
     0
 10
5.09044
 20
3.04172
 30
0.0
 11
5.16228
 21
3.04856
 31
0.0
  0
LINE
  8
0
 62
     0
 10
5.16228
 20
3.04856
 30
0.0
 11
5.26758
 21
3.06967
 31
0.0
  0
LINE
  8
0
 62
     0
 10
5.26758
 20
3.06967
 30
0.0
 11
5.36339
 21
3.10092
 31
0.0
  0
LINE
  8
0
 62
     0
 10
5.36339
 20
3.10092
 30
0.0
 11
5.4159
 21
3.12554
 31
0.0
  0
LINE
  8
0
 62
     0
 10
5.4159
 20
3.12554
 30
0.0
 11
5.43056
 21
3.13732
 31
0.0
  0
LINE
  8
0
 62
     0
 10
5.43056
 20
3.13732
 30
0.0
 11
5.44575
 21
3.14958
 31
0.0
  0
LINE
  8
0
 62
     0
 10
5.44575
 20
3.14958
 30
0.0
 11
5.48167
 21
3.1984
 31
0.0
  0
LINE
  8
0
 62
     0
 10
5.48167
 20
3.1984
 30
0.0
 11
5.50906
 21
3.27414
 31
0.0
  0
LINE
  8
0
 62
     0
 10
5.50906
 20
3.27414
 30
0.0
 11
5.51069
 21
3.35374
 31
0.0
  0
LINE
  8
0
 62
     0
 10
5.51069
 20
3.35374
 30
0.0
 11
5.49457
 21
3.41037
 31
0.0
  0
LINE
  8
0
 62
     0
 10
5.49457
 20
3.41037
 30
0.0
 11
5.48465
 21
3.42638
 31
0.0
  0
LINE
  8
0
 62
     0
 10
5.48465
 20
3.42638
 30
0.0
 11
5.47928
 21
3.43506
 31
0.0
  0
LINE
  8
0
 62
     0
 10
5.47928
 20
3.43506
 30
0.0
 11
5.45953
 21
3.45888
 31
0.0
  0
LINE
  8
0
 62
     0
 10
5.45953
 20
3.45888
 30
0.0
 11
5.42822
 21
3.48469
 31
0.0
  0
LINE
  8
0
 62
     0
 10
5.42822
 20
3.48469
 30
0.0
 11
5.38971
 21
3.50456
 31
0.0
  0
LINE
  8
0
 62
     0
 10
5.38971
 20
3.50456
 30
0.0
 11
5.35487
 21
3.51622
 31
0.0
  0
LINE
  8
0
 62
     0
 10
5.35487
 20
3.51622
 30
0.0
 11
5.34304
 21
3.51899
 31
0.0
  0
LINE
  8
0
 62
     0
 10
5.34304
 20
3.51899
 30
0.0
 11
5.30556
 21
3.52778
 31
0.0
  0
LINE
  8
0
 62
     0
 10
5.30556
 20
3.52778
 30
0.0
 11
5.33333
 21
3.57292
 31
0.0
  0
LINE
  8
0
 62
     0
 10
5.33333
 20
3.57292
 30
0.0
 11
5.33708
 21
3.5791
 31
0.0
  0
LINE
  8
0
 62
     0
 10
5.33708
 20
3.5791
 30
0.0
 11
5.35286
 21
3.61828
 31
0.0
  0
LINE
  8
0
 62
     0
 10
5.35286
 20
3.61828
 30
0.0
 11
5.36111
 21
3.6525
 31
0.0
  0
LINE
  8
0
 62
     0
 10
5.36111
 20
3.6525
 30
0.0
 11
5.36111
 21
3.6639
 31
0.0
  0
LINE
  8
0
 62
     0
 10
5.36111
 20
3.6639
 30
0.0
 11
5.36111
 21
3.66982
 31
0.0
  0
LINE
  8
0
 62
     0
 10
5.36111
 20
3.66982
 30
0.0
 11
5.36274
 21
3.6875
 31
0.0
  0
LINE
  8
0
 62
     0
 10
5.36274
 20
3.6875
 30
0.0
 11
5.36887
 21
3.70356
 31
0.0
  0
LINE
  8
0
 62
     0
 10
5.36887
 20
3.70356
 30
0.0
 11
5.38113
 21
3.71479
 31
0.0
  0
LINE
  8
0
 62
     0
 10
5.38113
 20
3.71479
 30
0.0
 11
5.39615
 21
3.72185
 31
0.0
  0
LINE
  8
0
 62
     0
 10
5.39615
 20
3.72185
 30
0.0
 11
5.40136
 21
3.72364
 31
0.0
  0
LINE
  8
0
 62
     0
 10
5.40136
 20
3.72364
 30
0.0
 11
5.40679
 21
3.72553
 31
0.0
  0
LINE
  8
0
 62
     0
 10
5.40679
 20
3.72553
 30
0.0
 11
5.42225
 21
3.73394
 31
0.0
  0
LINE
  8
0
 62
     0
 10
5.42225
 20
3.73394
 30
0.0
 11
5.43929
 21
3.75049
 31
0.0
  0
LINE
  8
0
 62
     0
 10
5.43929
 20
3.75049
 30
0.0
 11
5.45464
 21
3.77615
 31
0.0
  0
LINE
  8
0
 62
     0
 10
5.45464
 20
3.77615
 30
0.0
 11
5.46696
 21
3.80436
 31
0.0
  0
LINE
  8
0
 62
     0
 10
5.46696
 20
3.80436
 30
0.0
 11
5.4706
 21
3.81392
 31
0.0
  0
LINE
  8
0
 62
     0
 10
5.4706
 20
3.81392
 30
0.0
 11
5.47694
 21
3.83068
 31
0.0
  0
LINE
  8
0
 62
     0
 10
5.47694
 20
3.83068
 30
0.0
 11
5.48964
 21
3.8834
 31
0.0
  0
LINE
  8
0
 62
     0
 10
5.48964
 20
3.8834
 30
0.0
 11
5.49914
 21
3.95964
 31
0.0
  0
LINE
  8
0
 62
     0
 10
5.49914
 20
3.95964
 30
0.0
 11
5.49832
 21
4.03174
 31
0.0
  0
LINE
  8
0
 62
     0
 10
5.49832
 20
4.03174
 30
0.0
 11
5.49169
 21
4.07542
 31
0.0
  0
LINE
  8
0
 62
     0
 10
5.49169
 20
4.07542
 30
0.0
 11
5.48665
 21
4.08886
 31
0.0
  0
LINE
  8
0
 62
     0
 10
5.48665
 20
4.08886
 30
0.0
 11
5.484
 21
4.09586
 31
0.0
  0
LINE
  8
0
 62
     0
 10
5.484
 20
4.09586
 30
0.0
 11
5.47971
 21
4.11806
 31
0.0
  0
LINE
  8
0
 62
     0
 10
5.47971
 20
4.11806
 30
0.0
 11
5.48774
 21
4.12392
 31
0.0
  0
LINE
  8
0
 62
     0
 10
5.48774
 20
4.12392
 30
0.0
 11
5.50738
 21
4.10781
 31
0.0
  0
LINE
  8
0
 62
     0
 10
5.50738
 20
4.10781
 30
0.0
 11
5.52886
 21
4.08051
 31
0.0
  0
LINE
  8
0
 62
     0
 10
5.52886
 20
4.08051
 30
0.0
 11
5.53521
 21
4.07086
 31
0.0
  0
LINE
  8
0
 62
     0
 10
5.22569
 20
3.90972
 30
0.0
 11
5.22831
 21
3.90625
 31
0.0
  0
LINE
  8
0
 62
     0
 10
5.22831
 20
3.90625
 30
0.0
 11
5.23432
 21
3.89421
 31
0.0
  0
LINE
  8
0
 62
     0
 10
5.23432
 20
3.89421
 30
0.0
 11
5.23361
 21
3.88183
 31
0.0
  0
LINE
  8
0
 62
     0
 10
5.23361
 20
3.88183
 30
0.0
 11
5.22287
 21
3.87125
 31
0.0
  0
LINE
  8
0
 62
     0
 10
5.22287
 20
3.87125
 30
0.0
 11
5.20692
 21
3.86317
 31
0.0
  0
LINE
  8
0
 62
     0
 10
5.20692
 20
3.86317
 30
0.0
 11
5.20139
 21
3.86106
 31
0.0
  0
LINE
  8
0
 62
     0
 10
5.20139
 20
3.86106
 30
0.0
 11
5.19407
 21
3.85829
 31
0.0
  0
LINE
  8
0
 62
     0
 10
5.19407
 20
3.85829
 30
0.0
 11
5.16971
 21
3.85601
 31
0.0
  0
LINE
  8
0
 62
     0
 10
5.16971
 20
3.85601
 30
0.0
 11
5.14063
 21
3.86317
 31
0.0
  0
LINE
  8
0
 62
     0
 10
5.14063
 20
3.86317
 30
0.0
 11
5.11936
 21
3.8801
 31
0.0
  0
LINE
  8
0
 62
     0
 10
5.11936
 20
3.8801
 30
0.0
 11
5.11111
 21
3.89817
 31
0.0
  0
LINE
  8
0
 62
     0
 10
5.11111
 20
3.89817
 30
0.0
 11
5.11111
 21
3.90419
 31
0.0
  0
LINE
  8
0
 62
     0
 10
5.11111
 20
3.90419
 30
0.0
 11
5.11111
 21
3.90847
 31
0.0
  0
LINE
  8
0
 62
     0
 10
5.11111
 20
3.90847
 30
0.0
 11
5.12256
 21
3.92122
 31
0.0
  0
LINE
  8
0
 62
     0
 10
5.12256
 20
3.92122
 30
0.0
 11
5.15343
 21
3.92529
 31
0.0
  0
LINE
  8
0
 62
     0
 10
5.15343
 20
3.92529
 30
0.0
 11
5.16319
 21
3.92503
 31
0.0
  0
LINE
  8
0
 62
     0
 10
5.16319
 20
3.92503
 30
0.0
 11
5.17046
 21
3.92486
 31
0.0
  0
LINE
  8
0
 62
     0
 10
5.17046
 20
3.92486
 30
0.0
 11
5.20318
 21
3.91997
 31
0.0
  0
LINE
  8
0
 62
     0
 10
5.20318
 20
3.91997
 30
0.0
 11
5.22424
 21
3.91168
 31
0.0
  0
LINE
  8
0
 62
     0
 10
5.22424
 20
3.91168
 30
0.0
 11
5.22569
 21
3.90972
 31
0.0
  0
LINE
  8
0
 62
     0
 10
5.40901
 20
3.85069
 30
0.0
 11
5.40625
 21
3.84413
 31
0.0
  0
LINE
  8
0
 62
     0
 10
5.40625
 20
3.84413
 30
0.0
 11
5.39481
 21
3.81526
 31
0.0
  0
LINE
  8
0
 62
     0
 10
5.39481
 20
3.81526
 30
0.0
 11
5.38889
 21
3.80176
 31
0.0
  0
LINE
  8
0
 62
     0
 10
5.38889
 20
3.80176
 30
0.0
 11
5.38889
 21
3.79719
 31
0.0
  0
LINE
  8
0
 62
     0
 10
5.38889
 20
3.79719
 30
0.0
 11
5.38889
 21
3.79622
 31
0.0
  0
LINE
  8
0
 62
     0
 10
5.38889
 20
3.79622
 30
0.0
 11
5.38417
 21
3.79324
 31
0.0
  0
LINE
  8
0
 62
     0
 10
5.38417
 20
3.79324
 30
0.0
 11
5.37522
 21
3.79167
 31
0.0
  0
LINE
  8
0
 62
     0
 10
5.37522
 20
3.79167
 30
0.0
 11
5.37224
 21
3.79167
 31
0.0
  0
LINE
  8
0
 62
     0
 10
5.37224
 20
3.79167
 30
0.0
 11
5.36675
 21
3.79167
 31
0.0
  0
LINE
  8
0
 62
     0
 10
5.36675
 20
3.79167
 30
0.0
 11
5.35032
 21
3.7991
 31
0.0
  0
LINE
  8
0
 62
     0
 10
5.35032
 20
3.7991
 30
0.0
 11
5.32867
 21
3.81771
 31
0.0
  0
LINE
  8
0
 62
     0
 10
5.32867
 20
3.81771
 30
0.0
 11
5.31212
 21
3.84207
 31
0.0
  0
LINE
  8
0
 62
     0
 10
5.31212
 20
3.84207
 30
0.0
 11
5.30556
 21
3.86051
 31
0.0
  0
LINE
  8
0
 62
     0
 10
5.30556
 20
3.86051
 30
0.0
 11
5.30556
 21
3.86664
 31
0.0
  0
LINE
  8
0
 62
     0
 10
5.30556
 20
3.86664
 30
0.0
 11
5.30556
 21
3.87044
 31
0.0
  0
LINE
  8
0
 62
     0
 10
5.30556
 20
3.87044
 30
0.0
 11
5.30778
 21
3.88178
 31
0.0
  0
LINE
  8
0
 62
     0
 10
5.30778
 20
3.88178
 30
0.0
 11
5.31662
 21
3.89085
 31
0.0
  0
LINE
  8
0
 62
     0
 10
5.31662
 20
3.89085
 30
0.0
 11
5.33539
 21
3.89551
 31
0.0
  0
LINE
  8
0
 62
     0
 10
5.33539
 20
3.89551
 30
0.0
 11
5.35932
 21
3.89708
 31
0.0
  0
LINE
  8
0
 62
     0
 10
5.35932
 20
3.89708
 30
0.0
 11
5.36735
 21
3.89725
 31
0.0
  0
LINE
  8
0
 62
     0
 10
5.36735
 20
3.89725
 30
0.0
 11
5.42914
 21
3.8986
 31
0.0
  0
LINE
  8
0
 62
     0
 10
5.42914
 20
3.8986
 30
0.0
 11
5.40901
 21
3.85069
 31
0.0
  0
LINE
  8
0
 62
     0
 10
5.02778
 20
3.82497
 30
0.0
 11
5.0389
 21
3.82264
 31
0.0
  0
LINE
  8
0
 62
     0
 10
5.0389
 20
3.82264
 30
0.0
 11
5.07243
 21
3.81569
 31
0.0
  0
LINE
  8
0
 62
     0
 10
5.07243
 20
3.81569
 30
0.0
 11
5.11735
 21
3.80669
 31
0.0
  0
LINE
  8
0
 62
     0
 10
5.11735
 20
3.80669
 30
0.0
 11
5.15728
 21
3.79899
 31
0.0
  0
LINE
  8
0
 62
     0
 10
5.15728
 20
3.79899
 30
0.0
 11
5.17936
 21
3.79497
 31
0.0
  0
LINE
  8
0
 62
     0
 10
5.17936
 20
3.79497
 30
0.0
 11
5.18679
 21
3.79372
 31
0.0
  0
LINE
  8
0
 62
     0
 10
5.18679
 20
3.79372
 30
0.0
 11
5.19374
 21
3.79258
 31
0.0
  0
LINE
  8
0
 62
     0
 10
5.19374
 20
3.79258
 30
0.0
 11
5.21446
 21
3.78722
 31
0.0
  0
LINE
  8
0
 62
     0
 10
5.21446
 20
3.78722
 30
0.0
 11
5.23649
 21
3.77681
 31
0.0
  0
LINE
  8
0
 62
     0
 10
5.23649
 20
3.77681
 30
0.0
 11
5.25515
 21
3.76124
 31
0.0
  0
LINE
  8
0
 62
     0
 10
5.25515
 20
3.76124
 30
0.0
 11
5.26867
 21
3.74474
 31
0.0
  0
LINE
  8
0
 62
     0
 10
5.26867
 20
3.74474
 30
0.0
 11
5.27263
 21
3.73888
 31
0.0
  0
LINE
  8
0
 62
     0
 10
5.27263
 20
3.73888
 30
0.0
 11
5.27772
 21
3.73133
 31
0.0
  0
LINE
  8
0
 62
     0
 10
5.27772
 20
3.73133
 30
0.0
 11
5.29025
 21
3.70682
 31
0.0
  0
LINE
  8
0
 62
     0
 10
5.29025
 20
3.70682
 30
0.0
 11
5.29536
 21
3.67899
 31
0.0
  0
LINE
  8
0
 62
     0
 10
5.29536
 20
3.67899
 30
0.0
 11
5.28771
 21
3.65196
 31
0.0
  0
LINE
  8
0
 62
     0
 10
5.28771
 20
3.65196
 30
0.0
 11
5.27294
 21
3.62912
 31
0.0
  0
LINE
  8
0
 62
     0
 10
5.27294
 20
3.62912
 30
0.0
 11
5.26719
 21
3.62224
 31
0.0
  0
LINE
  8
0
 62
     0
 10
5.26719
 20
3.62224
 30
0.0
 11
5.26053
 21
3.61431
 31
0.0
  0
LINE
  8
0
 62
     0
 10
5.26053
 20
3.61431
 30
0.0
 11
5.22775
 21
3.60129
 31
0.0
  0
LINE
  8
0
 62
     0
 10
5.22775
 20
3.60129
 30
0.0
 11
5.16331
 21
3.59722
 31
0.0
  0
LINE
  8
0
 62
     0
 10
5.16331
 20
3.59722
 30
0.0
 11
5.07981
 21
3.60981
 31
0.0
  0
LINE
  8
0
 62
     0
 10
5.07981
 20
3.60981
 30
0.0
 11
5.00694
 21
3.63004
 31
0.0
  0
LINE
  8
0
 62
     0
 10
5.00694
 20
3.63004
 30
0.0
 11
4.98335
 21
3.63861
 31
0.0
  0
LINE
  8
0
 62
     0
 10
4.98335
 20
3.63861
 30
0.0
 11
4.96213
 21
3.64638
 31
0.0
  0
LINE
  8
0
 62
     0
 10
4.96213
 20
3.64638
 30
0.0
 11
4.89708
 21
3.66536
 31
0.0
  0
LINE
  8
0
 62
     0
 10
4.89708
 20
3.66536
 30
0.0
 11
4.81619
 21
3.67828
 31
0.0
  0
LINE
  8
0
 62
     0
 10
4.81619
 20
3.67828
 30
0.0
 11
4.72792
 21
3.67828
 31
0.0
  0
LINE
  8
0
 62
     0
 10
4.72792
 20
3.67828
 30
0.0
 11
4.64643
 21
3.67025
 31
0.0
  0
LINE
  8
0
 62
     0
 10
4.64643
 20
3.67025
 30
0.0
 11
4.61947
 21
3.66639
 31
0.0
  0
LINE
  8
0
 62
     0
 10
4.61947
 20
3.66639
 30
0.0
 11
4.61003
 21
3.6651
 31
0.0
  0
LINE
  8
0
 62
     0
 10
4.61003
 20
3.6651
 30
0.0
 11
4.58165
 21
3.66168
 31
0.0
  0
LINE
  8
0
 62
     0
 10
4.58165
 20
3.66168
 30
0.0
 11
4.54969
 21
3.65881
 31
0.0
  0
LINE
  8
0
 62
     0
 10
4.54969
 20
3.65881
 30
0.0
 11
4.52692
 21
3.6581
 31
0.0
  0
LINE
  8
0
 62
     0
 10
4.52692
 20
3.6581
 30
0.0
 11
4.51758
 21
3.65869
 31
0.0
  0
LINE
  8
0
 62
     0
 10
4.51758
 20
3.65869
 30
0.0
 11
4.51665
 21
3.65961
 31
0.0
  0
LINE
  8
0
 62
     0
 10
4.51665
 20
3.65961
 30
0.0
 11
4.51585
 21
3.66037
 31
0.0
  0
LINE
  8
0
 62
     0
 10
4.51585
 20
3.66037
 30
0.0
 11
4.52121
 21
3.67046
 31
0.0
  0
LINE
  8
0
 62
     0
 10
4.52121
 20
3.67046
 30
0.0
 11
4.54389
 21
3.68924
 31
0.0
  0
LINE
  8
0
 62
     0
 10
4.54389
 20
3.68924
 30
0.0
 11
4.57997
 21
3.71326
 31
0.0
  0
LINE
  8
0
 62
     0
 10
4.57997
 20
3.71326
 30
0.0
 11
4.62468
 21
3.7399
 31
0.0
  0
LINE
  8
0
 62
     0
 10
4.62468
 20
3.7399
 30
0.0
 11
4.67333
 21
3.76644
 31
0.0
  0
LINE
  8
0
 62
     0
 10
4.67333
 20
3.76644
 30
0.0
 11
4.72119
 21
3.79025
 31
0.0
  0
LINE
  8
0
 62
     0
 10
4.72119
 20
3.79025
 30
0.0
 11
4.76361
 21
3.80854
 31
0.0
  0
LINE
  8
0
 62
     0
 10
4.76361
 20
3.80854
 30
0.0
 11
4.7876
 21
3.81706
 31
0.0
  0
LINE
  8
0
 62
     0
 10
4.7876
 20
3.81706
 30
0.0
 11
4.79585
 21
3.81868
 31
0.0
  0
LINE
  8
0
 62
     0
 10
4.79585
 20
3.81868
 30
0.0
 11
4.80588
 21
3.82075
 31
0.0
  0
LINE
  8
0
 62
     0
 10
4.80588
 20
3.82075
 30
0.0
 11
4.85508
 21
3.83068
 31
0.0
  0
LINE
  8
0
 62
     0
 10
4.85508
 20
3.83068
 30
0.0
 11
4.89193
 21
3.83811
 31
0.0
  0
LINE
  8
0
 62
     0
 10
4.89193
 20
3.83811
 30
0.0
 11
4.89583
 21
3.83886
 31
0.0
  0
LINE
  8
0
 62
     0
 10
4.89583
 20
3.83886
 30
0.0
 11
4.89963
 21
3.83968
 31
0.0
  0
LINE
  8
0
 62
     0
 10
4.89963
 20
3.83968
 30
0.0
 11
4.91542
 21
3.84326
 31
0.0
  0
LINE
  8
0
 62
     0
 10
4.91542
 20
3.84326
 30
0.0
 11
4.92361
 21
3.84521
 31
0.0
  0
LINE
  8
0
 62
     0
 10
4.92361
 20
3.84521
 30
0.0
 11
4.92361
 21
3.84581
 31
0.0
  0
LINE
  8
0
 62
     0
 10
4.92361
 20
3.84581
 30
0.0
 11
4.92361
 21
3.84581
 31
0.0
  0
LINE
  8
0
 62
     0
 10
4.92361
 20
3.84581
 30
0.0
 11
4.93186
 21
3.84462
 31
0.0
  0
LINE
  8
0
 62
     0
 10
4.93186
 20
3.84462
 30
0.0
 11
4.95432
 21
3.84028
 31
0.0
  0
LINE
  8
0
 62
     0
 10
4.95432
 20
3.84028
 30
0.0
 11
4.98747
 21
3.8335
 31
0.0
  0
LINE
  8
0
 62
     0
 10
4.98747
 20
3.8335
 30
0.0
 11
5.01768
 21
3.82715
 31
0.0
  0
LINE
  8
0
 62
     0
 10
5.01768
 20
3.82715
 30
0.0
 11
5.02778
 21
3.82497
 31
0.0
  0
LINE
  8
0
 62
     0
 10
5.23807
 20
3.41525
 30
0.0
 11
5.23594
 21
3.40944
 31
0.0
  0
LINE
  8
0
 62
     0
 10
5.23594
 20
3.40944
 30
0.0
 11
5.22646
 21
3.39318
 31
0.0
  0
LINE
  8
0
 62
     0
 10
5.22646
 20
3.39318
 30
0.0
 11
5.21442
 21
3.38525
 31
0.0
  0
LINE
  8
0
 62
     0
 10
5.21442
 20
3.38525
 30
0.0
 11
5.20394
 21
3.39165
 31
0.0
  0
LINE
  8
0
 62
     0
 10
5.20394
 20
3.39165
 30
0.0
 11
5.19814
 21
3.40717
 31
0.0
  0
LINE
  8
0
 62
     0
 10
5.19814
 20
3.40717
 30
0.0
 11
5.19743
 21
3.41249
 31
0.0
  0
LINE
  8
0
 62
     0
 10
5.19743
 20
3.41249
 30
0.0
 11
5.19661
 21
3.4184
 31
0.0
  0
LINE
  8
0
 62
     0
 10
5.19661
 20
3.4184
 30
0.0
 11
5.20019
 21
3.43733
 31
0.0
  0
LINE
  8
0
 62
     0
 10
5.20019
 20
3.43733
 30
0.0
 11
5.21565
 21
3.44444
 31
0.0
  0
LINE
  8
0
 62
     0
 10
5.21565
 20
3.44444
 30
0.0
 11
5.22081
 21
3.44444
 31
0.0
  0
LINE
  8
0
 62
     0
 10
5.22081
 20
3.44444
 30
0.0
 11
5.22412
 21
3.44444
 31
0.0
  0
LINE
  8
0
 62
     0
 10
5.22412
 20
3.44444
 30
0.0
 11
5.23415
 21
3.44325
 31
0.0
  0
LINE
  8
0
 62
     0
 10
5.23415
 20
3.44325
 30
0.0
 11
5.24104
 21
3.43875
 31
0.0
  0
LINE
  8
0
 62
     0
 10
5.24104
 20
3.43875
 30
0.0
 11
5.24208
 21
3.42979
 31
0.0
  0
LINE
  8
0
 62
     0
 10
5.24208
 20
3.42979
 30
0.0
 11
5.23931
 21
3.41878
 31
0.0
  0
LINE
  8
0
 62
     0
 10
5.23931
 20
3.41878
 30
0.0
 11
5.23807
 21
3.41525
 31
0.0
  0
LINE
  8
0
 62
     0
 10
5.34581
 20
3.41775
 30
0.0
 11
5.34901
 21
3.41575
 31
0.0
  0
LINE
  8
0
 62
     0
 10
5.34901
 20
3.41575
 30
0.0
 11
5.35607
 21
3.40517
 31
0.0
  0
LINE
  8
0
 62
     0
 10
5.35607
 20
3.40517
 30
0.0
 11
5.35471
 21
3.39111
 31
0.0
  0
LINE
  8
0
 62
     0
 10
5.35471
 20
3.39111
 30
0.0
 11
5.34364
 21
3.37972
 31
0.0
  0
LINE
  8
0
 62
     0
 10
5.34364
 20
3.37972
 30
0.0
 11
5.32964
 21
3.375
 31
0.0
  0
LINE
  8
0
 62
     0
 10
5.32964
 20
3.375
 30
0.0
 11
5.32497
 21
3.375
 31
0.0
  0
LINE
  8
0
 62
     0
 10
5.32497
 20
3.375
 30
0.0
 11
5.3215
 21
3.375
 31
0.0
  0
LINE
  8
0
 62
     0
 10
5.3215
 20
3.375
 30
0.0
 11
5.31125
 21
3.38319
 31
0.0
  0
LINE
  8
0
 62
     0
 10
5.31125
 20
3.38319
 30
0.0
 11
5.30556
 21
3.39789
 31
0.0
  0
LINE
  8
0
 62
     0
 10
5.30556
 20
3.39789
 30
0.0
 11
5.30556
 21
3.40278
 31
0.0
  0
LINE
  8
0
 62
     0
 10
5.30556
 20
3.40278
 30
0.0
 11
5.30556
 21
3.40728
 31
0.0
  0
LINE
  8
0
 62
     0
 10
5.30556
 20
3.40728
 30
0.0
 11
5.30751
 21
3.42074
 31
0.0
  0
LINE
  8
0
 62
     0
 10
5.30751
 20
3.42074
 30
0.0
 11
5.31418
 21
3.42893
 31
0.0
  0
LINE
  8
0
 62
     0
 10
5.31418
 20
3.42893
 30
0.0
 11
5.32661
 21
3.42785
 31
0.0
  0
LINE
  8
0
 62
     0
 10
5.32661
 20
3.42785
 30
0.0
 11
5.34119
 21
3.42063
 31
0.0
  0
LINE
  8
0
 62
     0
 10
5.34119
 20
3.42063
 30
0.0
 11
5.34581
 21
3.41775
 31
0.0
  0
LINE
  8
0
 62
     0
 10
5.38206
 20
3.27778
 30
0.0
 11
5.38422
 21
3.27425
 31
0.0
  0
LINE
  8
0
 62
     0
 10
5.38422
 20
3.27425
 30
0.0
 11
5.37825
 21
3.25586
 31
0.0
  0
LINE
  8
0
 62
     0
 10
5.37825
 20
3.25586
 30
0.0
 11
5.35449
 21
3.22487
 31
0.0
  0
LINE
  8
0
 62
     0
 10
5.35449
 20
3.22487
 30
0.0
 11
5.31917
 21
3.19353
 31
0.0
  0
LINE
  8
0
 62
     0
 10
5.31917
 20
3.19353
 30
0.0
 11
5.29075
 21
3.17497
 31
0.0
  0
LINE
  8
0
 62
     0
 10
5.29075
 20
3.17497
 30
0.0
 11
5.28054
 21
3.17068
 31
0.0
  0
LINE
  8
0
 62
     0
 10
5.28054
 20
3.17068
 30
0.0
 11
5.27251
 21
3.16737
 31
0.0
  0
LINE
  8
0
 62
     0
 10
5.27251
 20
3.16737
 30
0.0
 11
5.24756
 21
3.15972
 31
0.0
  0
LINE
  8
0
 62
     0
 10
5.24756
 20
3.15972
 30
0.0
 11
5.22721
 21
3.15858
 31
0.0
  0
LINE
  8
0
 62
     0
 10
5.22721
 20
3.15858
 30
0.0
 11
5.22174
 21
3.16667
 31
0.0
  0
LINE
  8
0
 62
     0
 10
5.22174
 20
3.16667
 30
0.0
 11
5.22982
 21
3.17979
 31
0.0
  0
LINE
  8
0
 62
     0
 10
5.22982
 20
3.17979
 30
0.0
 11
5.23335
 21
3.18332
 31
0.0
  0
LINE
  8
0
 62
     0
 10
5.23335
 20
3.18332
 30
0.0
 11
5.23557
 21
3.1856
 31
0.0
  0
LINE
  8
0
 62
     0
 10
5.23557
 20
3.1856
 30
0.0
 11
5.24501
 21
3.20811
 31
0.0
  0
LINE
  8
0
 62
     0
 10
5.24501
 20
3.20811
 30
0.0
 11
5.25
 21
3.23486
 31
0.0
  0
LINE
  8
0
 62
     0
 10
5.25
 20
3.23486
 30
0.0
 11
5.25
 21
3.24376
 31
0.0
  0
LINE
  8
0
 62
     0
 10
5.25
 20
3.24376
 30
0.0
 11
5.25
 21
3.2519
 31
0.0
  0
LINE
  8
0
 62
     0
 10
5.25
 20
3.2519
 30
0.0
 11
5.25163
 21
3.27615
 31
0.0
  0
LINE
  8
0
 62
     0
 10
5.25163
 20
3.27615
 30
0.0
 11
5.25478
 21
3.29232
 31
0.0
  0
LINE
  8
0
 62
     0
 10
5.25478
 20
3.29232
 30
0.0
 11
5.25553
 21
3.29308
 31
0.0
  0
LINE
  8
0
 62
     0
 10
5.25553
 20
3.29308
 30
0.0
 11
5.25808
 21
3.29568
 31
0.0
  0
LINE
  8
0
 62
     0
 10
5.25808
 20
3.29568
 30
0.0
 11
5.27854
 21
3.29682
 31
0.0
  0
LINE
  8
0
 62
     0
 10
5.27854
 20
3.29682
 30
0.0
 11
5.31976
 21
3.294
 31
0.0
  0
LINE
  8
0
 62
     0
 10
5.31976
 20
3.294
 30
0.0
 11
5.36046
 21
3.28689
 31
0.0
  0
LINE
  8
0
 62
     0
 10
5.36046
 20
3.28689
 30
0.0
 11
5.3801
 21
3.28093
 31
0.0
  0
LINE
  8
0
 62
     0
 10
5.3801
 20
3.28093
 30
0.0
 11
5.38206
 21
3.27778
 31
0.0
  0
LINE
  8
0
 62
     0
 10
5.53239
 20
2.73888
 30
0.0
 11
5.53857
 21
2.72667
 31
0.0
  0
LINE
  8
0
 62
     0
 10
5.53857
 20
2.72667
 30
0.0
 11
5.55208
 21
2.68722
 31
0.0
  0
LINE
  8
0
 62
     0
 10
5.55208
 20
2.68722
 30
0.0
 11
5.56201
 21
2.63319
 31
0.0
  0
LINE
  8
0
 62
     0
 10
5.56201
 20
2.63319
 30
0.0
 11
5.56153
 21
2.58442
 31
0.0
  0
LINE
  8
0
 62
     0
 10
5.56153
 20
2.58442
 30
0.0
 11
5.55479
 21
2.55621
 31
0.0
  0
LINE
  8
0
 62
     0
 10
5.55479
 20
2.55621
 30
0.0
 11
5.54986
 21
2.54861
 31
0.0
  0
LINE
  8
0
 62
     0
 10
5.54986
 20
2.54861
 30
0.0
 11
5.54525
 21
2.54156
 31
0.0
  0
LINE
  8
0
 62
     0
 10
5.54525
 20
2.54156
 30
0.0
 11
5.52371
 21
2.52539
 31
0.0
  0
LINE
  8
0
 62
     0
 10
5.52371
 20
2.52539
 30
0.0
 11
5.47857
 21
2.50276
 31
0.0
  0
LINE
  8
0
 62
     0
 10
5.47857
 20
2.50276
 30
0.0
 11
5.41943
 21
2.48275
 31
0.0
  0
LINE
  8
0
 62
     0
 10
5.41943
 20
2.48275
 30
0.0
 11
5.36854
 21
2.47043
 31
0.0
  0
LINE
  8
0
 62
     0
 10
5.36854
 20
2.47043
 30
0.0
 11
5.3514
 21
2.46744
 31
0.0
  0
LINE
  8
0
 62
     0
 10
5.3514
 20
2.46744
 30
0.0
 11
5.345
 21
2.46636
 31
0.0
  0
LINE
  8
0
 62
     0
 10
5.345
 20
2.46636
 30
0.0
 11
5.32579
 21
2.46376
 31
0.0
  0
LINE
  8
0
 62
     0
 10
5.32579
 20
2.46376
 30
0.0
 11
5.31342
 21
2.46664
 31
0.0
  0
LINE
  8
0
 62
     0
 10
5.31342
 20
2.46664
 30
0.0
 11
5.31082
 21
2.47982
 31
0.0
  0
LINE
  8
0
 62
     0
 10
5.31082
 20
2.47982
 30
0.0
 11
5.31347
 21
2.50022
 31
0.0
  0
LINE
  8
0
 62
     0
 10
5.31347
 20
2.50022
 30
0.0
 11
5.31456
 21
2.50694
 31
0.0
  0
LINE
  8
0
 62
     0
 10
5.31456
 20
2.50694
 30
0.0
 11
5.31597
 21
2.51563
 31
0.0
  0
LINE
  8
0
 62
     0
 10
5.31597
 20
2.51563
 30
0.0
 11
5.31364
 21
2.55322
 31
0.0
  0
LINE
  8
0
 62
     0
 10
5.31364
 20
2.55322
 30
0.0
 11
5.29725
 21
2.58931
 31
0.0
  0
LINE
  8
0
 62
     0
 10
5.29725
 20
2.58931
 30
0.0
 11
5.29167
 21
2.59722
 31
0.0
  0
LINE
  8
0
 62
     0
 10
5.29167
 20
2.59722
 30
0.0
 11
5.28743
 21
2.60314
 31
0.0
  0
LINE
  8
0
 62
     0
 10
5.28743
 20
2.60314
 30
0.0
 11
5.27149
 21
2.62864
 31
0.0
  0
LINE
  8
0
 62
     0
 10
5.27149
 20
2.62864
 30
0.0
 11
5.26525
 21
2.64328
 31
0.0
  0
LINE
  8
0
 62
     0
 10
5.26525
 20
2.64328
 30
0.0
 11
5.26594
 21
2.64378
 31
0.0
  0
LINE
  8
0
 62
     0
 10
5.26594
 20
2.64378
 30
0.0
 11
5.2666
 21
2.64426
 31
0.0
  0
LINE
  8
0
 62
     0
 10
5.2666
 20
2.64426
 30
0.0
 11
5.27946
 21
2.6511
 31
0.0
  0
LINE
  8
0
 62
     0
 10
5.27946
 20
2.6511
 30
0.0
 11
5.30067
 21
2.66157
 31
0.0
  0
LINE
  8
0
 62
     0
 10
5.30067
 20
2.66157
 30
0.0
 11
5.30556
 21
2.6639
 31
0.0
  0
LINE
  8
0
 62
     0
 10
5.30556
 20
2.6639
 30
0.0
 11
5.31685
 21
2.66938
 31
0.0
  0
LINE
  8
0
 62
     0
 10
5.31685
 20
2.66938
 30
0.0
 11
5.35015
 21
2.68707
 31
0.0
  0
LINE
  8
0
 62
     0
 10
5.35015
 20
2.68707
 30
0.0
 11
5.39447
 21
2.71289
 31
0.0
  0
LINE
  8
0
 62
     0
 10
5.39447
 20
2.71289
 30
0.0
 11
5.43213
 21
2.73753
 31
0.0
  0
LINE
  8
0
 62
     0
 10
5.43213
 20
2.73753
 30
0.0
 11
5.4515
 21
2.75179
 31
0.0
  0
LINE
  8
0
 62
     0
 10
5.4515
 20
2.75179
 30
0.0
 11
5.45692
 21
2.757
 31
0.0
  0
LINE
  8
0
 62
     0
 10
5.45692
 20
2.757
 30
0.0
 11
5.46175
 21
2.76167
 31
0.0
  0
LINE
  8
0
 62
     0
 10
5.46175
 20
2.76167
 30
0.0
 11
5.47885
 21
2.773
 31
0.0
  0
LINE
  8
0
 62
     0
 10
5.47885
 20
2.773
 30
0.0
 11
5.49821
 21
2.77544
 31
0.0
  0
LINE
  8
0
 62
     0
 10
5.49821
 20
2.77544
 30
0.0
 11
5.51579
 21
2.76417
 31
0.0
  0
LINE
  8
0
 62
     0
 10
5.51579
 20
2.76417
 30
0.0
 11
5.52897
 21
2.74561
 31
0.0
  0
LINE
  8
0
 62
     0
 10
5.52897
 20
2.74561
 30
0.0
 11
5.53239
 21
2.73888
 31
0.0
  0
LINE
  8
0
 62
     0
 10
5.125
 20
2.68549
 30
0.0
 11
5.12983
 21
2.68229
 31
0.0
  0
LINE
  8
0
 62
     0
 10
5.12983
 20
2.68229
 30
0.0
 11
5.15142
 21
2.66775
 31
0.0
  0
LINE
  8
0
 62
     0
 10
5.15142
 20
2.66775
 30
0.0
 11
5.1651
 21
2.65836
 31
0.0
  0
LINE
  8
0
 62
     0
 10
5.1651
 20
2.65836
 30
0.0
 11
5.16596
 21
2.65767
 31
0.0
  0
LINE
  8
0
 62
     0
 10
5.16596
 20
2.65767
 30
0.0
 11
5.1665
 21
2.65722
 31
0.0
  0
LINE
  8
0
 62
     0
 10
5.1665
 20
2.65722
 30
0.0
 11
5.1626
 21
2.6486
 31
0.0
  0
LINE
  8
0
 62
     0
 10
5.1626
 20
2.6486
 30
0.0
 11
5.14893
 21
2.63612
 31
0.0
  0
LINE
  8
0
 62
     0
 10
5.14893
 20
2.63612
 30
0.0
 11
5.14513
 21
2.63336
 31
0.0
  0
LINE
  8
0
 62
     0
 10
5.14513
 20
2.63336
 30
0.0
 11
5.14139
 21
2.63069
 31
0.0
  0
LINE
  8
0
 62
     0
 10
5.14139
 20
2.63069
 30
0.0
 11
5.13172
 21
2.62033
 31
0.0
  0
LINE
  8
0
 62
     0
 10
5.13172
 20
2.62033
 30
0.0
 11
5.12375
 21
2.60211
 31
0.0
  0
LINE
  8
0
 62
     0
 10
5.12375
 20
2.60211
 30
0.0
 11
5.12022
 21
2.57493
 31
0.0
  0
LINE
  8
0
 62
     0
 10
5.12022
 20
2.57493
 30
0.0
 11
5.11985
 21
2.54476
 31
0.0
  0
LINE
  8
0
 62
     0
 10
5.11985
 20
2.54476
 30
0.0
 11
5.12011
 21
2.53472
 31
0.0
  0
LINE
  8
0
 62
     0
 10
5.12011
 20
2.53472
 30
0.0
 11
5.12224
 21
2.45557
 31
0.0
  0
LINE
  8
0
 62
     0
 10
5.12224
 20
2.45557
 30
0.0
 11
5.05279
 21
2.46181
 31
0.0
  0
LINE
  8
0
 62
     0
 10
5.05279
 20
2.46181
 30
0.0
 11
5.04303
 21
2.46272
 31
0.0
  0
LINE
  8
0
 62
     0
 10
5.04303
 20
2.46272
 30
0.0
 11
4.99968
 21
2.4719
 31
0.0
  0
LINE
  8
0
 62
     0
 10
4.99968
 20
2.4719
 30
0.0
 11
4.97217
 21
2.48481
 31
0.0
  0
LINE
  8
0
 62
     0
 10
4.97217
 20
2.48481
 30
0.0
 11
4.97038
 21
2.48753
 31
0.0
  0
LINE
  8
0
 62
     0
 10
4.97038
 20
2.48753
 30
0.0
 11
4.9661
 21
2.49393
 31
0.0
  0
LINE
  8
0
 62
     0
 10
4.9661
 20
2.49393
 30
0.0
 11
4.96235
 21
2.51904
 31
0.0
  0
LINE
  8
0
 62
     0
 10
4.96235
 20
2.51904
 30
0.0
 11
4.96864
 21
2.56196
 31
0.0
  0
LINE
  8
0
 62
     0
 10
4.96864
 20
2.56196
 30
0.0
 11
4.98731
 21
2.60969
 31
0.0
  0
LINE
  8
0
 62
     0
 10
4.98731
 20
2.60969
 30
0.0
 11
5.00814
 21
2.64497
 31
0.0
  0
LINE
  8
0
 62
     0
 10
5.00814
 20
2.64497
 30
0.0
 11
5.01654
 21
2.65554
 31
0.0
  0
LINE
  8
0
 62
     0
 10
5.01654
 20
2.65554
 30
0.0
 11
5.02349
 21
2.66433
 31
0.0
  0
LINE
  8
0
 62
     0
 10
5.02349
 20
2.66433
 30
0.0
 11
5.04617
 21
2.6894
 31
0.0
  0
LINE
  8
0
 62
     0
 10
5.04617
 20
2.6894
 30
0.0
 11
5.06988
 21
2.70449
 31
0.0
  0
LINE
  8
0
 62
     0
 10
5.06988
 20
2.70449
 30
0.0
 11
5.09403
 21
2.70258
 31
0.0
  0
LINE
  8
0
 62
     0
 10
5.09403
 20
2.70258
 30
0.0
 11
5.11762
 21
2.69038
 31
0.0
  0
LINE
  8
0
 62
     0
 10
5.11762
 20
2.69038
 30
0.0
 11
5.125
 21
2.68549
 31
0.0
  0
LINE
  8
0
 62
     0
 10
5.57383
 20
2.34304
 30
0.0
 11
5.58074
 21
2.33447
 31
0.0
  0
LINE
  8
0
 62
     0
 10
5.58074
 20
2.33447
 30
0.0
 11
5.60129
 21
2.30849
 31
0.0
  0
LINE
  8
0
 62
     0
 10
5.60129
 20
2.30849
 30
0.0
 11
5.62169
 21
2.28065
 31
0.0
  0
LINE
  8
0
 62
     0
 10
5.62169
 20
2.28065
 30
0.0
 11
5.63553
 21
2.25771
 31
0.0
  0
LINE
  8
0
 62
     0
 10
5.63553
 20
2.25771
 30
0.0
 11
5.64318
 21
2.2379
 31
0.0
  0
LINE
  8
0
 62
     0
 10
5.64318
 20
2.2379
 30
0.0
 11
5.64518
 21
2.21946
 31
0.0
  0
LINE
  8
0
 62
     0
 10
5.64518
 20
2.21946
 30
0.0
 11
5.64187
 21
2.20053
 31
0.0
  0
LINE
  8
0
 62
     0
 10
5.64187
 20
2.20053
 30
0.0
 11
5.63385
 21
2.17942
 31
0.0
  0
LINE
  8
0
 62
     0
 10
5.63385
 20
2.17942
 30
0.0
 11
5.62468
 21
2.16043
 31
0.0
  0
LINE
  8
0
 62
     0
 10
5.62468
 20
2.16043
 30
0.0
 11
5.62147
 21
2.15419
 31
0.0
  0
LINE
  8
0
 62
     0
 10
5.62147
 20
2.15419
 30
0.0
 11
5.61176
 21
2.13553
 31
0.0
  0
LINE
  8
0
 62
     0
 10
5.61176
 20
2.13553
 30
0.0
 11
5.5734
 21
2.08421
 31
0.0
  0
LINE
  8
0
 62
     0
 10
5.5734
 20
2.08421
 30
0.0
 11
5.50879
 21
2.03082
 31
0.0
  0
LINE
  8
0
 62
     0
 10
5.50879
 20
2.03082
 30
0.0
 11
5.42393
 21
1.99181
 31
0.0
  0
LINE
  8
0
 62
     0
 10
5.42393
 20
1.99181
 30
0.0
 11
5.34272
 21
1.96967
 31
0.0
  0
LINE
  8
0
 62
     0
 10
5.34272
 20
1.96967
 30
0.0
 11
5.31526
 21
1.96479
 31
0.0
  0
LINE
  8
0
 62
     0
 10
5.31526
 20
1.96479
 30
0.0
 11
5.30593
 21
1.96317
 31
0.0
  0
LINE
  8
0
 62
     0
 10
5.30593
 20
1.96317
 30
0.0
 11
5.27707
 21
1.96311
 31
0.0
  0
LINE
  8
0
 62
     0
 10
5.27707
 20
1.96311
 30
0.0
 11
5.26281
 21
1.97424
 31
0.0
  0
LINE
  8
0
 62
     0
 10
5.26281
 20
1.97424
 30
0.0
 11
5.27268
 21
1.99615
 31
0.0
  0
LINE
  8
0
 62
     0
 10
5.27268
 20
1.99615
 30
0.0
 11
5.29775
 21
2.01997
 31
0.0
  0
LINE
  8
0
 62
     0
 10
5.29775
 20
2.01997
 30
0.0
 11
5.30697
 21
2.02669
 31
0.0
  0
LINE
  8
0
 62
     0
 10
5.30697
 20
2.02669
 30
0.0
 11
5.31288
 21
2.03108
 31
0.0
  0
LINE
  8
0
 62
     0
 10
5.31288
 20
2.03108
 30
0.0
 11
5.32981
 21
2.04536
 31
0.0
  0
LINE
  8
0
 62
     0
 10
5.32981
 20
2.04536
 30
0.0
 11
5.34179
 21
2.06222
 31
0.0
  0
LINE
  8
0
 62
     0
 10
5.34179
 20
2.06222
 30
0.0
 11
5.34532
 21
2.08322
 31
0.0
  0
LINE
  8
0
 62
     0
 10
5.34532
 20
2.08322
 30
0.0
 11
5.34364
 21
2.10628
 31
0.0
  0
LINE
  8
0
 62
     0
 10
5.34364
 20
2.10628
 30
0.0
 11
5.34267
 21
2.11388
 31
0.0
  0
LINE
  8
0
 62
     0
 10
5.34267
 20
2.11388
 30
0.0
 11
5.34119
 21
2.125
 31
0.0
  0
LINE
  8
0
 62
     0
 10
5.34119
 20
2.125
 30
0.0
 11
5.33182
 21
2.15761
 31
0.0
  0
LINE
  8
0
 62
     0
 10
5.33182
 20
2.15761
 30
0.0
 11
5.31136
 21
2.19303
 31
0.0
  0
LINE
  8
0
 62
     0
 10
5.31136
 20
2.19303
 30
0.0
 11
5.28028
 21
2.22151
 31
0.0
  0
LINE
  8
0
 62
     0
 10
5.28028
 20
2.22151
 30
0.0
 11
5.24864
 21
2.23969
 31
0.0
  0
LINE
  8
0
 62
     0
 10
5.24864
 20
2.23969
 30
0.0
 11
5.23753
 21
2.24431
 31
0.0
  0
LINE
  8
0
 62
     0
 10
5.23753
 20
2.24431
 30
0.0
 11
5.22125
 21
2.25108
 31
0.0
  0
LINE
  8
0
 62
     0
 10
5.22125
 20
2.25108
 30
0.0
 11
5.16883
 21
2.26247
 31
0.0
  0
LINE
  8
0
 62
     0
 10
5.16883
 20
2.26247
 30
0.0
 11
5.11208
 21
2.25575
 31
0.0
  0
LINE
  8
0
 62
     0
 10
5.11208
 20
2.25575
 30
0.0
 11
5.0695
 21
2.22493
 31
0.0
  0
LINE
  8
0
 62
     0
 10
5.0695
 20
2.22493
 30
0.0
 11
5.04688
 21
2.18511
 31
0.0
  0
LINE
  8
0
 62
     0
 10
5.04688
 20
2.18511
 30
0.0
 11
5.04303
 21
2.17085
 31
0.0
  0
LINE
  8
0
 62
     0
 10
5.04303
 20
2.17085
 30
0.0
 11
5.04118
 21
2.16401
 31
0.0
  0
LINE
  8
0
 62
     0
 10
5.04118
 20
2.16401
 30
0.0
 11
5.037
 21
2.14296
 31
0.0
  0
LINE
  8
0
 62
     0
 10
5.037
 20
2.14296
 30
0.0
 11
5.03678
 21
2.12076
 31
0.0
  0
LINE
  8
0
 62
     0
 10
5.03678
 20
2.12076
 30
0.0
 11
5.04297
 21
2.09967
 31
0.0
  0
LINE
  8
0
 62
     0
 10
5.04297
 20
2.09967
 30
0.0
 11
5.05263
 21
2.08094
 31
0.0
  0
LINE
  8
0
 62
     0
 10
5.05263
 20
2.08094
 30
0.0
 11
5.05626
 21
2.07497
 31
0.0
  0
LINE
  8
0
 62
     0
 10
5.05626
 20
2.07497
 30
0.0
 11
5.06006
 21
2.06874
 31
0.0
  0
LINE
  8
0
 62
     0
 10
5.06006
 20
2.06874
 30
0.0
 11
5.08149
 21
2.03847
 31
0.0
  0
LINE
  8
0
 62
     0
 10
5.08149
 20
2.03847
 30
0.0
 11
5.10124
 21
2.01579
 31
0.0
  0
LINE
  8
0
 62
     0
 10
5.10124
 20
2.01579
 30
0.0
 11
5.10417
 21
2.01335
 31
0.0
  0
LINE
  8
0
 62
     0
 10
5.10417
 20
2.01335
 30
0.0
 11
5.10894
 21
2.00939
 31
0.0
  0
LINE
  8
0
 62
     0
 10
5.10894
 20
2.00939
 30
0.0
 11
5.12201
 21
1.99582
 31
0.0
  0
LINE
  8
0
 62
     0
 10
5.12201
 20
1.99582
 30
0.0
 11
5.12756
 21
1.98361
 31
0.0
  0
LINE
  8
0
 62
     0
 10
5.12756
 20
1.98361
 30
0.0
 11
5.1219
 21
1.97661
 31
0.0
  0
LINE
  8
0
 62
     0
 10
5.1219
 20
1.97661
 30
0.0
 11
5.10633
 21
1.97487
 31
0.0
  0
LINE
  8
0
 62
     0
 10
5.10633
 20
1.97487
 30
0.0
 11
5.08197
 21
1.97831
 31
0.0
  0
LINE
  8
0
 62
     0
 10
5.08197
 20
1.97831
 30
0.0
 11
5.05003
 21
1.98682
 31
0.0
  0
LINE
  8
0
 62
     0
 10
5.05003
 20
1.98682
 30
0.0
 11
5.01161
 21
2.00043
 31
0.0
  0
LINE
  8
0
 62
     0
 10
5.01161
 20
2.00043
 30
0.0
 11
4.97879
 21
2.01406
 31
0.0
  0
LINE
  8
0
 62
     0
 10
4.97879
 20
2.01406
 30
0.0
 11
4.96804
 21
2.01899
 31
0.0
  0
LINE
  8
0
 62
     0
 10
4.96804
 20
2.01899
 30
0.0
 11
4.95421
 21
2.02539
 31
0.0
  0
LINE
  8
0
 62
     0
 10
4.95421
 20
2.02539
 30
0.0
 11
4.91542
 21
2.05035
 31
0.0
  0
LINE
  8
0
 62
     0
 10
4.91542
 20
2.05035
 30
0.0
 11
4.87125
 21
2.08876
 31
0.0
  0
LINE
  8
0
 62
     0
 10
4.87125
 20
2.08876
 30
0.0
 11
4.84369
 21
2.12571
 31
0.0
  0
LINE
  8
0
 62
     0
 10
4.84369
 20
2.12571
 30
0.0
 11
4.83789
 21
2.14828
 31
0.0
  0
LINE
  8
0
 62
     0
 10
4.83789
 20
2.14828
 30
0.0
 11
4.84076
 21
2.15278
 31
0.0
  0
LINE
  8
0
 62
     0
 10
4.84076
 20
2.15278
 30
0.0
 11
4.84185
 21
2.15451
 31
0.0
  0
LINE
  8
0
 62
     0
 10
4.84185
 20
2.15451
 30
0.0
 11
4.84022
 21
2.17344
 31
0.0
  0
LINE
  8
0
 62
     0
 10
4.84022
 20
2.17344
 30
0.0
 11
4.83083
 21
2.20003
 31
0.0
  0
LINE
  8
0
 62
     0
 10
4.83083
 20
2.20003
 30
0.0
 11
4.82801
 21
2.20557
 31
0.0
  0
LINE
  8
0
 62
     0
 10
4.82801
 20
2.20557
 30
0.0
 11
4.82314
 21
2.21511
 31
0.0
  0
LINE
  8
0
 62
     0
 10
4.82314
 20
2.21511
 30
0.0
 11
4.81401
 21
2.24653
 31
0.0
  0
LINE
  8
0
 62
     0
 10
4.81401
 20
2.24653
 30
0.0
 11
4.82021
 21
2.28082
 31
0.0
  0
LINE
  8
0
 62
     0
 10
4.82021
 20
2.28082
 30
0.0
 11
4.84858
 21
2.31244
 31
0.0
  0
LINE
  8
0
 62
     0
 10
4.84858
 20
2.31244
 30
0.0
 11
4.88764
 21
2.33811
 31
0.0
  0
LINE
  8
0
 62
     0
 10
4.88764
 20
2.33811
 30
0.0
 11
4.90136
 21
2.34538
 31
0.0
  0
LINE
  8
0
 62
     0
 10
4.90136
 20
2.34538
 30
0.0
 11
4.91331
 21
2.35172
 31
0.0
  0
LINE
  8
0
 62
     0
 10
4.91331
 20
2.35172
 30
0.0
 11
4.94982
 21
2.36957
 31
0.0
  0
LINE
  8
0
 62
     0
 10
4.94982
 20
2.36957
 30
0.0
 11
4.9924
 21
2.38124
 31
0.0
  0
LINE
  8
0
 62
     0
 10
4.9924
 20
2.38124
 30
0.0
 11
5.05246
 21
2.38363
 31
0.0
  0
LINE
  8
0
 62
     0
 10
5.05246
 20
2.38363
 30
0.0
 11
5.12819
 21
2.38103
 31
0.0
  0
LINE
  8
0
 62
     0
 10
5.12819
 20
2.38103
 30
0.0
 11
5.15349
 21
2.37989
 31
0.0
  0
LINE
  8
0
 62
     0
 10
5.15349
 20
2.37989
 30
0.0
 11
5.17165
 21
2.37912
 31
0.0
  0
LINE
  8
0
 62
     0
 10
5.17165
 20
2.37912
 30
0.0
 11
5.2264
 21
2.37804
 31
0.0
  0
LINE
  8
0
 62
     0
 10
5.2264
 20
2.37804
 30
0.0
 11
5.2979
 21
2.37853
 31
0.0
  0
LINE
  8
0
 62
     0
 10
5.2979
 20
2.37853
 30
0.0
 11
5.35949
 21
2.38112
 31
0.0
  0
LINE
  8
0
 62
     0
 10
5.35949
 20
2.38112
 30
0.0
 11
5.39231
 21
2.3839
 31
0.0
  0
LINE
  8
0
 62
     0
 10
5.39231
 20
2.3839
 30
0.0
 11
5.40278
 21
2.38574
 31
0.0
  0
LINE
  8
0
 62
     0
 10
5.40278
 20
2.38574
 30
0.0
 11
5.41254
 21
2.38747
 31
0.0
  0
LINE
  8
0
 62
     0
 10
5.41254
 20
2.38747
 30
0.0
 11
5.44189
 21
2.39253
 31
0.0
  0
LINE
  8
0
 62
     0
 10
5.44189
 20
2.39253
 30
0.0
 11
5.47211
 21
2.39681
 31
0.0
  0
LINE
  8
0
 62
     0
 10
5.47211
 20
2.39681
 30
0.0
 11
5.49533
 21
2.39811
 31
0.0
  0
LINE
  8
0
 62
     0
 10
5.49533
 20
2.39811
 30
0.0
 11
5.51346
 21
2.39594
 31
0.0
  0
LINE
  8
0
 62
     0
 10
5.51346
 20
2.39594
 30
0.0
 11
5.52843
 21
2.38986
 31
0.0
  0
LINE
  8
0
 62
     0
 10
5.52843
 20
2.38986
 30
0.0
 11
5.54215
 21
2.37935
 31
0.0
  0
LINE
  8
0
 62
     0
 10
5.54215
 20
2.37935
 30
0.0
 11
5.55664
 21
2.36388
 31
0.0
  0
LINE
  8
0
 62
     0
 10
5.55664
 20
2.36388
 30
0.0
 11
5.56961
 21
2.34831
 31
0.0
  0
LINE
  8
0
 62
     0
 10
5.56961
 20
2.34831
 30
0.0
 11
5.57383
 21
2.34304
 31
0.0
  0
LINE
  8
0
 62
     0
 10
4.81321
 20
2.03543
 30
0.0
 11
4.82303
 21
2.02533
 31
0.0
  0
LINE
  8
0
 62
     0
 10
4.82303
 20
2.02533
 30
0.0
 11
4.85167
 21
1.99403
 31
0.0
  0
LINE
  8
0
 62
     0
 10
4.85167
 20
1.99403
 30
0.0
 11
4.87494
 21
1.96485
 31
0.0
  0
LINE
  8
0
 62
     0
 10
4.87494
 20
1.96485
 30
0.0
 11
4.88385
 21
1.94656
 31
0.0
  0
LINE
  8
0
 62
     0
 10
4.88385
 20
1.94656
 30
0.0
 11
4.88086
 21
1.93858
 31
0.0
  0
LINE
  8
0
 62
     0
 10
4.88086
 20
1.93858
 30
0.0
 11
4.87918
 21
1.93793
 31
0.0
  0
LINE
  8
0
 62
     0
 10
4.87918
 20
1.93793
 30
0.0
 11
4.86822
 21
1.93381
 31
0.0
  0
LINE
  8
0
 62
     0
 10
4.86822
 20
1.93381
 30
0.0
 11
4.84483
 21
1.89654
 31
0.0
  0
LINE
  8
0
 62
     0
 10
4.84483
 20
1.89654
 30
0.0
 11
4.82406
 21
1.82221
 31
0.0
  0
LINE
  8
0
 62
     0
 10
4.82406
 20
1.82221
 30
0.0
 11
4.8215
 21
1.74479
 31
0.0
  0
LINE
  8
0
 62
     0
 10
4.8215
 20
1.74479
 30
0.0
 11
4.83247
 21
1.70176
 31
0.0
  0
LINE
  8
0
 62
     0
 10
4.83247
 20
1.70176
 30
0.0
 11
4.84169
 21
1.69412
 31
0.0
  0
LINE
  8
0
 62
     0
 10
4.84169
 20
1.69412
 30
0.0
 11
4.84933
 21
1.68778
 31
0.0
  0
LINE
  8
0
 62
     0
 10
4.84933
 20
1.68778
 30
0.0
 11
4.88124
 21
1.67854
 31
0.0
  0
LINE
  8
0
 62
     0
 10
4.88124
 20
1.67854
 30
0.0
 11
4.94206
 21
1.67051
 31
0.0
  0
LINE
  8
0
 62
     0
 10
4.94206
 20
1.67051
 30
0.0
 11
5.00651
 21
1.67111
 31
0.0
  0
LINE
  8
0
 62
     0
 10
5.00651
 20
1.67111
 30
0.0
 11
5.04525
 21
1.67654
 31
0.0
  0
LINE
  8
0
 62
     0
 10
5.04525
 20
1.67654
 30
0.0
 11
5.05697
 21
1.68132
 31
0.0
  0
LINE
  8
0
 62
     0
 10
5.05697
 20
1.68132
 30
0.0
 11
5.06685
 21
1.68539
 31
0.0
  0
LINE
  8
0
 62
     0
 10
5.06685
 20
1.68539
 30
0.0
 11
5.09347
 21
1.70514
 31
0.0
  0
LINE
  8
0
 62
     0
 10
5.09347
 20
1.70514
 30
0.0
 11
5.11957
 21
1.74013
 31
0.0
  0
LINE
  8
0
 62
     0
 10
5.11957
 20
1.74013
 30
0.0
 11
5.13319
 21
1.78233
 31
0.0
  0
LINE
  8
0
 62
     0
 10
5.13319
 20
1.78233
 30
0.0
 11
5.13444
 21
1.81685
 31
0.0
  0
LINE
  8
0
 62
     0
 10
5.13444
 20
1.81685
 30
0.0
 11
5.13238
 21
1.82781
 31
0.0
  0
LINE
  8
0
 62
     0
 10
5.13238
 20
1.82781
 30
0.0
 11
5.12358
 21
1.87358
 31
0.0
  0
LINE
  8
0
 62
     0
 10
5.12358
 20
1.87358
 30
0.0
 11
5.25276
 21
1.87847
 31
0.0
  0
LINE
  8
0
 62
     0
 10
5.25276
 20
1.87847
 30
0.0
 11
5.27425
 21
1.87929
 31
0.0
  0
LINE
  8
0
 62
     0
 10
5.27425
 20
1.87929
 30
0.0
 11
5.47282
 21
1.91174
 31
0.0
  0
LINE
  8
0
 62
     0
 10
5.47282
 20
1.91174
 30
0.0
 11
5.491
 21
1.91737
 31
0.0
  0
LINE
  8
0
 62
     0
 10
5.491
 20
1.91737
 30
0.0
 11
5.59999
 21
1.95139
 31
0.0
  0
LINE
  8
0
 62
     0
 10
5.59999
 20
1.95139
 30
0.0
 11
5.64085
 21
1.90278
 31
0.0
  0
LINE
  8
0
 62
     0
 10
5.64085
 20
1.90278
 30
0.0
 11
5.66233
 21
1.87722
 31
0.0
  0
LINE
  8
0
 62
     0
 10
5.66233
 20
1.87722
 30
0.0
 11
5.72054
 21
1.79508
 31
0.0
  0
LINE
  8
0
 62
     0
 10
5.72054
 20
1.79508
 30
0.0
 11
5.78103
 21
1.68772
 31
0.0
  0
LINE
  8
0
 62
     0
 10
5.78103
 20
1.68772
 30
0.0
 11
5.81685
 21
1.59207
 31
0.0
  0
LINE
  8
0
 62
     0
 10
5.81685
 20
1.59207
 30
0.0
 11
5.82601
 21
1.53668
 31
0.0
  0
LINE
  8
0
 62
     0
 10
5.82601
 20
1.53668
 30
0.0
 11
5.82275
 21
1.51942
 31
0.0
  0
LINE
  8
0
 62
     0
 10
5.82275
 20
1.51942
 30
0.0
 11
5.82004
 21
1.5051
 31
0.0
  0
LINE
  8
0
 62
     0
 10
5.82004
 20
1.5051
 30
0.0
 11
5.79432
 21
1.46544
 31
0.0
  0
LINE
  8
0
 62
     0
 10
5.79432
 20
1.46544
 30
0.0
 11
5.72933
 21
1.42063
 31
0.0
  0
LINE
  8
0
 62
     0
 10
5.72933
 20
1.42063
 30
0.0
 11
5.62446
 21
1.38336
 31
0.0
  0
LINE
  8
0
 62
     0
 10
5.62446
 20
1.38336
 30
0.0
 11
5.51367
 21
1.35829
 31
0.0
  0
LINE
  8
0
 62
     0
 10
5.51367
 20
1.35829
 30
0.0
 11
5.4764
 21
1.352
 31
0.0
  0
LINE
  8
0
 62
     0
 10
5.4764
 20
1.352
 30
0.0
 11
5.45964
 21
1.34918
 31
0.0
  0
LINE
  8
0
 62
     0
 10
5.45964
 20
1.34918
 30
0.0
 11
5.40924
 21
1.34163
 31
0.0
  0
LINE
  8
0
 62
     0
 10
5.40924
 20
1.34163
 30
0.0
 11
5.36231
 21
1.33675
 31
0.0
  0
LINE
  8
0
 62
     0
 10
5.36231
 20
1.33675
 30
0.0
 11
5.33279
 21
1.33729
 31
0.0
  0
LINE
  8
0
 62
     0
 10
5.33279
 20
1.33729
 30
0.0
 11
5.32058
 21
1.34049
 31
0.0
  0
LINE
  8
0
 62
     0
 10
5.32058
 20
1.34049
 30
0.0
 11
5.31803
 21
1.34304
 31
0.0
  0
LINE
  8
0
 62
     0
 10
5.31803
 20
1.34304
 30
0.0
 11
5.31549
 21
1.34559
 31
0.0
  0
LINE
  8
0
 62
     0
 10
5.31549
 20
1.34559
 30
0.0
 11
5.31515
 21
1.36035
 31
0.0
  0
LINE
  8
0
 62
     0
 10
5.31515
 20
1.36035
 30
0.0
 11
5.3361
 21
1.37815
 31
0.0
  0
LINE
  8
0
 62
     0
 10
5.3361
 20
1.37815
 30
0.0
 11
5.34375
 21
1.38265
 31
0.0
  0
LINE
  8
0
 62
     0
 10
5.34375
 20
1.38265
 30
0.0
 11
5.34928
 21
1.38596
 31
0.0
  0
LINE
  8
0
 62
     0
 10
5.34928
 20
1.38596
 30
0.0
 11
5.37961
 21
1.41174
 31
0.0
  0
LINE
  8
0
 62
     0
 10
5.37961
 20
1.41174
 30
0.0
 11
5.40533
 21
1.44179
 31
0.0
  0
LINE
  8
0
 62
     0
 10
5.40533
 20
1.44179
 30
0.0
 11
5.40858
 21
1.44721
 31
0.0
  0
LINE
  8
0
 62
     0
 10
5.40858
 20
1.44721
 30
0.0
 11
5.41422
 21
1.45676
 31
0.0
  0
LINE
  8
0
 62
     0
 10
5.41422
 20
1.45676
 30
0.0
 11
5.42307
 21
1.49029
 31
0.0
  0
LINE
  8
0
 62
     0
 10
5.42307
 20
1.49029
 30
0.0
 11
5.42117
 21
1.53683
 31
0.0
  0
LINE
  8
0
 62
     0
 10
5.42117
 20
1.53683
 30
0.0
 11
5.4056
 21
1.58317
 31
0.0
  0
LINE
  8
0
 62
     0
 10
5.4056
 20
1.58317
 30
0.0
 11
5.37935
 21
1.6256
 31
0.0
  0
LINE
  8
0
 62
     0
 10
5.37935
 20
1.6256
 30
0.0
 11
5.34526
 21
1.66043
 31
0.0
  0
LINE
  8
0
 62
     0
 10
5.34526
 20
1.66043
 30
0.0
 11
5.30626
 21
1.68392
 31
0.0
  0
LINE
  8
0
 62
     0
 10
5.30626
 20
1.68392
 30
0.0
 11
5.26519
 21
1.69239
 31
0.0
  0
LINE
  8
0
 62
     0
 10
5.26519
 20
1.69239
 30
0.0
 11
5.23383
 21
1.68696
 31
0.0
  0
LINE
  8
0
 62
     0
 10
5.23383
 20
1.68696
 30
0.0
 11
5.22499
 21
1.68218
 31
0.0
  0
LINE
  8
0
 62
     0
 10
5.22499
 20
1.68218
 30
0.0
 11
5.22151
 21
1.68033
 31
0.0
  0
LINE
  8
0
 62
     0
 10
5.22151
 20
1.68033
 30
0.0
 11
5.20404
 21
1.67486
 31
0.0
  0
LINE
  8
0
 62
     0
 10
5.20404
 20
1.67486
 30
0.0
 11
5.19135
 21
1.67524
 31
0.0
  0
LINE
  8
0
 62
     0
 10
5.19135
 20
1.67524
 30
0.0
 11
5.19026
 21
1.67632
 31
0.0
  0
LINE
  8
0
 62
     0
 10
5.19026
 20
1.67632
 30
0.0
 11
5.18881
 21
1.67774
 31
0.0
  0
LINE
  8
0
 62
     0
 10
5.18881
 20
1.67774
 30
0.0
 11
5.17925
 21
1.67665
 31
0.0
  0
LINE
  8
0
 62
     0
 10
5.17925
 20
1.67665
 30
0.0
 11
5.16287
 21
1.66471
 31
0.0
  0
LINE
  8
0
 62
     0
 10
5.16287
 20
1.66471
 30
0.0
 11
5.14318
 21
1.64344
 31
0.0
  0
LINE
  8
0
 62
     0
 10
5.14318
 20
1.64344
 30
0.0
 11
5.12229
 21
1.616
 31
0.0
  0
LINE
  8
0
 62
     0
 10
5.12229
 20
1.616
 30
0.0
 11
5.10232
 21
1.58529
 31
0.0
  0
LINE
  8
0
 62
     0
 10
5.10232
 20
1.58529
 30
0.0
 11
5.08544
 21
1.55442
 31
0.0
  0
LINE
  8
0
 62
     0
 10
5.08544
 20
1.55442
 30
0.0
 11
5.07379
 21
1.52636
 31
0.0
  0
LINE
  8
0
 62
     0
 10
5.07379
 20
1.52636
 30
0.0
 11
5.06944
 21
1.50976
 31
0.0
  0
LINE
  8
0
 62
     0
 10
5.06944
 20
1.50976
 30
0.0
 11
5.06944
 21
1.50418
 31
0.0
  0
LINE
  8
0
 62
     0
 10
5.06944
 20
1.50418
 30
0.0
 11
5.06944
 21
1.5019
 31
0.0
  0
LINE
  8
0
 62
     0
 10
5.06944
 20
1.5019
 30
0.0
 11
5.07383
 21
1.49507
 31
0.0
  0
LINE
  8
0
 62
     0
 10
5.07383
 20
1.49507
 30
0.0
 11
5.08583
 21
1.47831
 31
0.0
  0
LINE
  8
0
 62
     0
 10
5.08583
 20
1.47831
 30
0.0
 11
5.10351
 21
1.45649
 31
0.0
  0
LINE
  8
0
 62
     0
 10
5.10351
 20
1.45649
 30
0.0
 11
5.11951
 21
1.43799
 31
0.0
  0
LINE
  8
0
 62
     0
 10
5.11951
 20
1.43799
 30
0.0
 11
5.125
 21
1.43197
 31
0.0
  0
LINE
  8
0
 62
     0
 10
5.125
 20
1.43197
 30
0.0
 11
5.13043
 21
1.426
 31
0.0
  0
LINE
  8
0
 62
     0
 10
5.13043
 20
1.426
 30
0.0
 11
5.14643
 21
1.4075
 31
0.0
  0
LINE
  8
0
 62
     0
 10
5.14643
 20
1.4075
 30
0.0
 11
5.16411
 21
1.38563
 31
0.0
  0
LINE
  8
0
 62
     0
 10
5.16411
 20
1.38563
 30
0.0
 11
5.17611
 21
1.36887
 31
0.0
  0
LINE
  8
0
 62
     0
 10
5.17611
 20
1.36887
 30
0.0
 11
5.18056
 21
1.36203
 31
0.0
  0
LINE
  8
0
 62
     0
 10
5.18056
 20
1.36203
 30
0.0
 11
5.18056
 21
1.3597
 31
0.0
  0
LINE
  8
0
 62
     0
 10
5.18056
 20
1.3597
 30
0.0
 11
5.18056
 21
1.35379
 31
0.0
  0
LINE
  8
0
 62
     0
 10
5.18056
 20
1.35379
 30
0.0
 11
5.14492
 21
1.33605
 31
0.0
  0
LINE
  8
0
 62
     0
 10
5.14492
 20
1.33605
 30
0.0
 11
5.04861
 21
1.33789
 31
0.0
  0
LINE
  8
0
 62
     0
 10
5.04861
 20
1.33789
 30
0.0
 11
4.9075
 21
1.3635
 31
0.0
  0
LINE
  8
0
 62
     0
 10
4.9075
 20
1.3635
 30
0.0
 11
4.77946
 21
1.3974
 31
0.0
  0
LINE
  8
0
 62
     0
 10
4.77946
 20
1.3974
 30
0.0
 11
4.73753
 21
1.41092
 31
0.0
  0
LINE
  8
0
 62
     0
 10
4.73753
 20
1.41092
 30
0.0
 11
4.72206
 21
1.4159
 31
0.0
  0
LINE
  8
0
 62
     0
 10
4.72206
 20
1.4159
 30
0.0
 11
4.67626
 21
1.4324
 31
0.0
  0
LINE
  8
0
 62
     0
 10
4.67626
 20
1.4324
 30
0.0
 11
4.63368
 21
1.45318
 31
0.0
  0
LINE
  8
0
 62
     0
 10
4.63368
 20
1.45318
 30
0.0
 11
4.59939
 21
1.4796
 31
0.0
  0
LINE
  8
0
 62
     0
 10
4.59939
 20
1.4796
 30
0.0
 11
4.57183
 21
1.50814
 31
0.0
  0
LINE
  8
0
 62
     0
 10
4.57183
 20
1.50814
 30
0.0
 11
4.56321
 21
1.51807
 31
0.0
  0
LINE
  8
0
 62
     0
 10
4.56321
 20
1.51807
 30
0.0
 11
4.5529
 21
1.52989
 31
0.0
  0
LINE
  8
0
 62
     0
 10
4.5529
 20
1.52989
 30
0.0
 11
4.51824
 21
1.57829
 31
0.0
  0
LINE
  8
0
 62
     0
 10
4.51824
 20
1.57829
 30
0.0
 11
4.50603
 21
1.61263
 31
0.0
  0
LINE
  8
0
 62
     0
 10
4.50603
 20
1.61263
 30
0.0
 11
4.50694
 21
1.61735
 31
0.0
  0
LINE
  8
0
 62
     0
 10
4.50694
 20
1.61735
 30
0.0
 11
4.50771
 21
1.62125
 31
0.0
  0
LINE
  8
0
 62
     0
 10
4.50771
 20
1.62125
 30
0.0
 11
4.50976
 21
1.63688
 31
0.0
  0
LINE
  8
0
 62
     0
 10
4.50976
 20
1.63688
 30
0.0
 11
4.51346
 21
1.66906
 31
0.0
  0
LINE
  8
0
 62
     0
 10
4.51346
 20
1.66906
 30
0.0
 11
4.51742
 21
1.70921
 31
0.0
  0
LINE
  8
0
 62
     0
 10
4.51742
 20
1.70921
 30
0.0
 11
4.5204
 21
1.74192
 31
0.0
  0
LINE
  8
0
 62
     0
 10
4.5204
 20
1.74192
 30
0.0
 11
4.52132
 21
1.75276
 31
0.0
  0
LINE
  8
0
 62
     0
 10
4.52132
 20
1.75276
 30
0.0
 11
4.52333
 21
1.77746
 31
0.0
  0
LINE
  8
0
 62
     0
 10
4.52333
 20
1.77746
 30
0.0
 11
4.53857
 21
1.85075
 31
0.0
  0
LINE
  8
0
 62
     0
 10
4.53857
 20
1.85075
 30
0.0
 11
4.5715
 21
1.94607
 31
0.0
  0
LINE
  8
0
 62
     0
 10
4.5715
 20
1.94607
 30
0.0
 11
4.61567
 21
2.02854
 31
0.0
  0
LINE
  8
0
 62
     0
 10
4.61567
 20
2.02854
 30
0.0
 11
4.65186
 21
2.07542
 31
0.0
  0
LINE
  8
0
 62
     0
 10
4.65186
 20
2.07542
 30
0.0
 11
4.66667
 21
2.08778
 31
0.0
  0
LINE
  8
0
 62
     0
 10
4.66667
 20
2.08778
 30
0.0
 11
4.6729
 21
2.09304
 31
0.0
  0
LINE
  8
0
 62
     0
 10
4.6729
 20
2.09304
 30
0.0
 11
4.70047
 21
2.11426
 31
0.0
  0
LINE
  8
0
 62
     0
 10
4.70047
 20
2.11426
 30
0.0
 11
4.71414
 21
2.125
 31
0.0
  0
LINE
  8
0
 62
     0
 10
4.71414
 20
2.125
 30
0.0
 11
4.71875
 21
2.125
 31
0.0
  0
LINE
  8
0
 62
     0
 10
4.71875
 20
2.125
 30
0.0
 11
4.72119
 21
2.125
 31
0.0
  0
LINE
  8
0
 62
     0
 10
4.72119
 20
2.125
 30
0.0
 11
4.72863
 21
2.11789
 31
0.0
  0
LINE
  8
0
 62
     0
 10
4.72863
 20
2.11789
 30
0.0
 11
4.74983
 21
2.09847
 31
0.0
  0
LINE
  8
0
 62
     0
 10
4.74983
 20
2.09847
 30
0.0
 11
4.77914
 21
2.06993
 31
0.0
  0
LINE
  8
0
 62
     0
 10
4.77914
 20
2.06993
 30
0.0
 11
4.80474
 21
2.04417
 31
0.0
  0
LINE
  8
0
 62
     0
 10
4.80474
 20
2.04417
 30
0.0
 11
4.81321
 21
2.03543
 31
0.0
  0
LINE
  8
0
 62
     0
 10
4.81526
 20
1.26926
 30
0.0
 11
4.82417
 21
1.26638
 31
0.0
  0
LINE
  8
0
 62
     0
 10
4.82417
 20
1.26638
 30
0.0
 11
4.85042
 21
1.25581
 31
0.0
  0
LINE
  8
0
 62
     0
 10
4.85042
 20
1.25581
 30
0.0
 11
4.87722
 21
1.23964
 31
0.0
  0
LINE
  8
0
 62
     0
 10
4.87722
 20
1.23964
 30
0.0
 11
4.89958
 21
1.21788
 31
0.0
  0
LINE
  8
0
 62
     0
 10
4.89958
 20
1.21788
 30
0.0
 11
4.91629
 21
1.19537
 31
0.0
  0
LINE
  8
0
 62
     0
 10
4.91629
 20
1.19537
 30
0.0
 11
4.92128
 21
1.1875
 31
0.0
  0
LINE
  8
0
 62
     0
 10
4.92128
 20
1.1875
 30
0.0
 11
4.93024
 21
1.17345
 31
0.0
  0
LINE
  8
0
 62
     0
 10
4.93024
 20
1.17345
 30
0.0
 11
4.94933
 21
1.12614
 31
0.0
  0
LINE
  8
0
 62
     0
 10
4.94933
 20
1.12614
 30
0.0
 11
4.95936
 21
1.06266
 31
0.0
  0
LINE
  8
0
 62
     0
 10
4.95936
 20
1.06266
 30
0.0
 11
4.95117
 21
1.00293
 31
0.0
  0
LINE
  8
0
 62
     0
 10
4.95117
 20
1.00293
 30
0.0
 11
4.93354
 21
0.963542
 31
0.0
  0
LINE
  8
0
 62
     0
 10
4.93354
 20
0.963542
 30
0.0
 11
4.92475
 21
0.9528
 31
0.0
  0
LINE
  8
0
 62
     0
 10
4.92475
 20
0.9528
 30
0.0
 11
4.91997
 21
0.946994
 31
0.0
  0
LINE
  8
0
 62
     0
 10
4.91997
 20
0.946994
 30
0.0
 11
4.90435
 21
0.930556
 31
0.0
  0
LINE
  8
0
 62
     0
 10
4.90435
 20
0.930556
 30
0.0
 11
4.88422
 21
0.919433
 31
0.0
  0
LINE
  8
0
 62
     0
 10
4.88422
 20
0.919433
 30
0.0
 11
4.85487
 21
0.916938
 31
0.0
  0
LINE
  8
0
 62
     0
 10
4.85487
 20
0.916938
 30
0.0
 11
4.8189
 21
0.919379
 31
0.0
  0
LINE
  8
0
 62
     0
 10
4.8189
 20
0.919379
 30
0.0
 11
4.80697
 21
0.920464
 31
0.0
  0
LINE
  8
0
 62
     0
 10
4.80697
 20
0.920464
 30
0.0
 11
4.79183
 21
0.921875
 31
0.0
  0
LINE
  8
0
 62
     0
 10
4.79183
 20
0.921875
 30
0.0
 11
4.74685
 21
0.930881
 31
0.0
  0
LINE
  8
0
 62
     0
 10
4.74685
 20
0.930881
 30
0.0
 11
4.69786
 21
0.950792
 31
0.0
  0
LINE
  8
0
 62
     0
 10
4.69786
 20
0.950792
 30
0.0
 11
4.65674
 21
0.982042
 31
0.0
  0
LINE
  8
0
 62
     0
 10
4.65674
 20
0.982042
 30
0.0
 11
4.62842
 21
1.01459
 31
0.0
  0
LINE
  8
0
 62
     0
 10
4.62842
 20
1.01459
 30
0.0
 11
4.62039
 21
1.02637
 31
0.0
  0
LINE
  8
0
 62
     0
 10
4.62039
 20
1.02637
 30
0.0
 11
4.61475
 21
1.03467
 31
0.0
  0
LINE
  8
0
 62
     0
 10
4.61475
 20
1.03467
 30
0.0
 11
4.60449
 21
1.06413
 31
0.0
  0
LINE
  8
0
 62
     0
 10
4.60449
 20
1.06413
 30
0.0
 11
4.60265
 21
1.11024
 31
0.0
  0
LINE
  8
0
 62
     0
 10
4.60265
 20
1.11024
 30
0.0
 11
4.6149
 21
1.16515
 31
0.0
  0
LINE
  8
0
 62
     0
 10
4.6149
 20
1.16515
 30
0.0
 11
4.63374
 21
1.21365
 31
0.0
  0
LINE
  8
0
 62
     0
 10
4.63374
 20
1.21365
 30
0.0
 11
4.64133
 21
1.22917
 31
0.0
  0
LINE
  8
0
 62
     0
 10
4.64133
 20
1.22917
 30
0.0
 11
4.64426
 21
1.2353
 31
0.0
  0
LINE
  8
0
 62
     0
 10
4.64426
 20
1.2353
 30
0.0
 11
4.65414
 21
1.25315
 31
0.0
  0
LINE
  8
0
 62
     0
 10
4.65414
 20
1.25315
 30
0.0
 11
4.6671
 21
1.2711
 31
0.0
  0
LINE
  8
0
 62
     0
 10
4.6671
 20
1.2711
 30
0.0
 11
4.68137
 21
1.28342
 31
0.0
  0
LINE
  8
0
 62
     0
 10
4.68137
 20
1.28342
 30
0.0
 11
4.69819
 21
1.29026
 31
0.0
  0
LINE
  8
0
 62
     0
 10
4.69819
 20
1.29026
 30
0.0
 11
4.71881
 21
1.29205
 31
0.0
  0
LINE
  8
0
 62
     0
 10
4.71881
 20
1.29205
 30
0.0
 11
4.74436
 21
1.2889
 31
0.0
  0
LINE
  8
0
 62
     0
 10
4.74436
 20
1.2889
 30
0.0
 11
4.7761
 21
1.28125
 31
0.0
  0
LINE
  8
0
 62
     0
 10
4.7761
 20
1.28125
 30
0.0
 11
4.8055
 21
1.27241
 31
0.0
  0
LINE
  8
0
 62
     0
 10
4.8055
 20
1.27241
 30
0.0
 11
4.81526
 21
1.26926
 31
0.0
  0
LINE
  8
0
 62
     0
 10
5.57904
 20
1.21804
 30
0.0
 11
5.59353
 21
1.20188
 31
0.0
  0
LINE
  8
0
 62
     0
 10
5.59353
 20
1.20188
 30
0.0
 11
5.63396
 21
1.15034
 31
0.0
  0
LINE
  8
0
 62
     0
 10
5.63396
 20
1.15034
 30
0.0
 11
5.67958
 21
1.08192
 31
0.0
  0
LINE
  8
0
 62
     0
 10
5.67958
 20
1.08192
 30
0.0
 11
5.71067
 21
1.02154
 31
0.0
  0
LINE
  8
0
 62
     0
 10
5.71067
 20
1.02154
 30
0.0
 11
5.72222
 21
0.988715
 31
0.0
  0
LINE
  8
0
 62
     0
 10
5.72222
 20
0.988715
 30
0.0
 11
5.72222
 21
0.977756
 31
0.0
  0
LINE
  8
0
 62
     0
 10
5.72222
 20
0.977756
 30
0.0
 11
5.72222
 21
0.962349
 31
0.0
  0
LINE
  8
0
 62
     0
 10
5.72222
 20
0.962349
 30
0.0
 11
5.6971
 21
0.916124
 31
0.0
  0
LINE
  8
0
 62
     0
 10
5.6971
 20
0.916124
 30
0.0
 11
5.63525
 21
0.890571
 31
0.0
  0
LINE
  8
0
 62
     0
 10
5.63525
 20
0.890571
 30
0.0
 11
5.55686
 21
0.903157
 31
0.0
  0
LINE
  8
0
 62
     0
 10
5.55686
 20
0.903157
 30
0.0
 11
5.49707
 21
0.939128
 31
0.0
  0
LINE
  8
0
 62
     0
 10
5.49707
 20
0.939128
 30
0.0
 11
5.48221
 21
0.955567
 31
0.0
  0
LINE
  8
0
 62
     0
 10
5.48221
 20
0.955567
 30
0.0
 11
5.47894
 21
0.959201
 31
0.0
  0
LINE
  8
0
 62
     0
 10
5.47894
 20
0.959201
 30
0.0
 11
5.47032
 21
0.974501
 31
0.0
  0
LINE
  8
0
 62
     0
 10
5.47032
 20
0.974501
 30
0.0
 11
5.45551
 21
1.00662
 31
0.0
  0
LINE
  8
0
 62
     0
 10
5.45551
 20
1.00662
 30
0.0
 11
5.43972
 21
1.04725
 31
0.0
  0
LINE
  8
0
 62
     0
 10
5.43972
 20
1.04725
 30
0.0
 11
5.42839
 21
1.08051
 31
0.0
  0
LINE
  8
0
 62
     0
 10
5.42839
 20
1.08051
 30
0.0
 11
5.42503
 21
1.09169
 31
0.0
  0
LINE
  8
0
 62
     0
 10
5.42503
 20
1.09169
 30
0.0
 11
5.39165
 21
1.20139
 31
0.0
  0
LINE
  8
0
 62
     0
 10
5.39165
 20
1.20139
 30
0.0
 11
5.41943
 21
1.22542
 31
0.0
  0
LINE
  8
0
 62
     0
 10
5.41943
 20
1.22542
 30
0.0
 11
5.42703
 21
1.23204
 31
0.0
  0
LINE
  8
0
 62
     0
 10
5.42703
 20
1.23204
 30
0.0
 11
5.45649
 21
1.24441
 31
0.0
  0
LINE
  8
0
 62
     0
 10
5.45649
 20
1.24441
 30
0.0
 11
5.50142
 21
1.24924
 31
0.0
  0
LINE
  8
0
 62
     0
 10
5.50142
 20
1.24924
 30
0.0
 11
5.54525
 21
1.24029
 31
0.0
  0
LINE
  8
0
 62
     0
 10
5.54525
 20
1.24029
 30
0.0
 11
5.57249
 21
1.22532
 31
0.0
  0
LINE
  8
0
 62
     0
 10
5.57249
 20
1.22532
 30
0.0
 11
5.57904
 21
1.21804
 31
0.0
  0
ENDSEC
  0
EOF
